<svg width="8" height="10" viewBox="0 0 8 10" fill="none" xmlns="http://www.w3.org/2000/svg">
<path d="M0.222834 0.413963C-0.0145367 0.687866 0.0150765 1.10231 0.288979 1.33969L3.57023 4.18344C3.81687 4.39721 4.18317 4.39721 4.42981 4.18344L7.71106 1.33969C7.98496 1.10231 8.01457 0.687866 7.7772 0.413963C7.53983 0.140061 7.12535 0.110475 6.85148 0.347846L4.00002 2.81909L1.14856 0.347846C0.874682 0.110475 0.460205 0.140088 0.222834 0.413963ZM0.222834 9.58604C-0.0145367 9.31214 0.0150765 8.89769 0.288979 8.66032L3.57023 5.81657C3.81687 5.6028 4.18317 5.6028 4.42981 5.81657L7.71106 8.66032C7.98496 8.89769 8.01457 9.31214 7.7772 9.58604C7.53983 9.85994 7.12535 9.88953 6.85148 9.65216L4.00002 7.18091L1.14856 9.65216C0.874682 9.88953 0.460205 9.85992 0.222834 9.58604Z" fill="#333331"/>
</svg>
