<svg width="21" height="18" viewBox="0 0 21 18" fill="none" xmlns="http://www.w3.org/2000/svg">
<path d="M18.625 0C19.7296 0 20.625 0.89543 20.625 2V16C20.625 17.1046 19.7296 18 18.625 18H2.625C1.52043 18 0.625 17.1046 0.625 16V2C0.625 0.89543 1.52043 0 2.625 0H18.625ZM15.625 12H5.625C5.07272 12 4.625 12.4477 4.625 13C4.625 13.5523 5.07272 14 5.625 14H15.625C16.1773 14 16.625 13.5523 16.625 13C16.625 12.4477 16.1773 12 15.625 12ZM8.625 4H6.625C5.57064 4 4.70683 4.81588 4.63049 5.85074L4.625 6V8C4.625 9.05439 5.44088 9.91817 6.47574 9.99451L6.625 10H8.625C9.67939 10 10.5432 9.18415 10.6195 8.14927L10.625 8V6C10.625 4.94564 9.80915 4.08183 8.77427 4.00549L8.625 4ZM15.625 8H12.625C12.0727 8 11.625 8.4477 11.625 9C11.625 9.51285 12.011 9.93551 12.5084 9.99327L12.625 10H15.625C16.1773 10 16.625 9.5523 16.625 9C16.625 8.48715 16.239 8.06449 15.7416 8.00673L15.625 8ZM8.625 6V8H6.625V6H8.625ZM15.625 4H12.625C12.0727 4 11.625 4.44772 11.625 5C11.625 5.55228 12.0727 6 12.625 6H15.625C16.1773 6 16.625 5.55228 16.625 5C16.625 4.44772 16.1773 4 15.625 4Z" fill="#218358"/>
</svg>
