<svg width="21" height="18" viewBox="0 0 21 18" fill="none" xmlns="http://www.w3.org/2000/svg">
<path fill-rule="evenodd" clip-rule="evenodd" d="M18.625 0C19.7296 0 20.625 0.89543 20.625 2V16C20.625 17.1046 19.7296 18 18.625 18H2.625C1.52043 18 0.625 17.1046 0.625 16V2C0.625 0.89543 1.52043 0 2.625 0H18.625ZM18.625 2H2.625V16H18.625V2ZM15.625 12C16.1773 12 16.625 12.4477 16.625 13C16.625 13.5128 16.239 13.9355 15.7416 13.9933L15.625 14H5.625C5.07272 14 4.625 13.5523 4.625 13C4.625 12.4872 5.01104 12.0645 5.50838 12.0067L5.625 12H15.625ZM8.625 4C9.7296 4 10.625 4.89543 10.625 6V8C10.625 9.1046 9.7296 10 8.625 10H6.625C5.52043 10 4.625 9.1046 4.625 8V6C4.625 4.89543 5.52043 4 6.625 4H8.625ZM15.625 8C16.1773 8 16.625 8.4477 16.625 9C16.625 9.5523 16.1773 10 15.625 10H12.625C12.0727 10 11.625 9.5523 11.625 9C11.625 8.4477 12.0727 8 12.625 8H15.625ZM8.625 6H6.625V8H8.625V6ZM15.625 4C16.1773 4 16.625 4.44772 16.625 5C16.625 5.51283 16.239 5.93551 15.7416 5.99327L15.625 6H12.625C12.0727 6 11.625 5.55228 11.625 5C11.625 4.48717 12.011 4.06449 12.5084 4.00673L12.625 4H15.625Z" fill="#94A3B8"/>
</svg>
