<svg width="15" height="16" viewBox="0 0 15 16" fill="none" xmlns="http://www.w3.org/2000/svg">
<path d="M6.66667 14.6667C6.66667 15.1269 7.03975 15.5 7.5 15.5C7.96025 15.5 8.33333 15.1269 8.33333 14.6667V8.83333H14.1667C14.6269 8.83333 15 8.46025 15 8C15 7.53975 14.6269 7.16667 14.1667 7.16667H8.33333V1.33333C8.33333 0.8731 7.96025 0.5 7.5 0.5C7.03975 0.5 6.66667 0.8731 6.66667 1.33333V7.16667H0.833333C0.3731 7.16667 0 7.53975 0 8C0 8.46025 0.3731 8.83333 0.833333 8.83333H6.66667V14.6667Z" fill="#1E293B"/>
</svg>
