<svg width="12" height="13" viewBox="0 0 12 13" fill="none" xmlns="http://www.w3.org/2000/svg">
<path fill-rule="evenodd" clip-rule="evenodd" d="M7.99992 11.6668C7.99992 12.3698 7.45602 12.9456 6.76609 12.9965L6.66658 13.0002H5.33325C4.63034 13.0002 4.05447 12.4563 4.00357 11.7663L3.99992 11.6668H7.99992ZM6.00005 0.333496C8.52369 0.333496 10.5794 2.33669 10.664 4.83973L10.6667 5.00016V7.50943L11.8814 9.9389C12.1136 10.4033 11.8031 10.9457 11.3021 10.9963L11.2255 11.0002H0.774564C0.255377 11.0002 -0.090949 10.4798 0.0878485 10.0091L0.118651 9.9389L1.33336 7.50943V5.00016C1.33336 2.42284 3.4227 0.333496 6.00005 0.333496ZM6.00005 1.66683C4.20752 1.66683 2.74548 3.0817 2.66977 4.85557L2.66669 5.00016V7.50943C2.66669 7.67503 2.63585 7.83879 2.57611 7.9925L2.52593 8.10576L1.74538 9.66683H10.2546L9.47412 8.10576C9.40009 7.9576 9.35444 7.79733 9.33914 7.63316L9.33338 7.50943V5.00016C9.33338 3.15922 7.84098 1.66683 6.00005 1.66683Z" fill="#1E293B"/>
</svg>
