<svg width="32" height="32" viewBox="0 0 32 32" fill="none" xmlns="http://www.w3.org/2000/svg">
<rect width="32" height="32" rx="16" fill="#D5F0E4"/>
<path d="M17.3333 10C18.0697 10 18.6666 10.597 18.6666 11.3333V13.3333H21.3333C22.0697 13.3333 22.6666 13.9303 22.6666 14.6667V20.6667C22.6666 21.4031 22.0697 22 21.3333 22H10.6666C9.93021 22 9.33325 21.4031 9.33325 20.6667V16.6667C9.33325 15.9303 9.93021 15.3333 10.6666 15.3333H13.3333V11.3333C13.3333 10.597 13.9302 10 14.6666 10H17.3333ZM17.3333 11.3333H14.6666V20.6667H17.3333V11.3333ZM21.3333 14.6667H18.6666V20.6667H21.3333V14.6667ZM13.3333 16.6667H10.6666V20.6667H13.3333V16.6667Z" fill="#218358"/>
</svg>
