<svg width="12" height="12" viewBox="0 0 12 12" fill="none" xmlns="http://www.w3.org/2000/svg">
<path d="M8.66667 0C9.00857 0 9.29034 0.257363 9.32885 0.58892L9.33333 0.666667V1.33333H10.6667C11.3696 1.33333 11.9454 1.87725 11.9963 2.56716L12 2.66667V10.6667C12 11.3696 11.4561 11.9454 10.7662 11.9963L10.6667 12H1.33333C0.630425 12 0.0545566 11.4561 0.00365718 10.7662L0 10.6667V2.66667C0 1.96376 0.543918 1.38789 1.23383 1.33699L1.33333 1.33333H2.66667V0.666667C2.66667 0.29848 2.96515 0 3.33333 0C3.67522 0 3.957 0.257363 3.99551 0.58892L4 0.666667V1.33333H8V0.666667C8 0.29848 8.29847 0 8.66667 0ZM10.6667 6H1.33333V10.6667H10.6667V6ZM10.6667 2.66667H1.33333V4.66667H10.6667V2.66667Z" fill="#94A3B8"/>
</svg>
