<svg width="11" height="10" viewBox="0 0 11 10" fill="none" xmlns="http://www.w3.org/2000/svg">
<path fill-rule="evenodd" clip-rule="evenodd" d="M5.49918 5.94293L9.27038 9.7142C9.53072 9.97453 9.95285 9.97453 10.2132 9.7142C10.4735 9.4538 10.4735 9.03173 10.2132 8.77133L6.44198 5.00013L10.2132 1.2289C10.4735 0.968554 10.4735 0.54644 10.2132 0.286094C9.95285 0.0257403 9.53072 0.0257403 9.27038 0.286094L5.49918 4.05733L1.72791 0.28608C1.46756 0.0257336 1.04545 0.0257336 0.785104 0.28608C0.524757 0.546434 0.524757 0.96854 0.785104 1.22889L4.55632 5.00013L0.785104 8.7714C0.524757 9.03173 0.524757 9.4538 0.785104 9.7142C1.04545 9.97453 1.46756 9.97453 1.72791 9.7142L5.49918 5.94293Z" fill="#1E293B"/>
</svg>
