<svg width="14" height="14" viewBox="0 0 14 14" fill="none" xmlns="http://www.w3.org/2000/svg">
<path d="M6.99992 0.333252C10.6818 0.333252 13.6666 3.31802 13.6666 6.99992C13.6666 10.6818 10.6818 13.6666 6.99992 13.6666C3.31802 13.6666 0.333252 10.6818 0.333252 6.99992C0.333252 3.31802 3.31802 0.333252 6.99992 0.333252ZM5.58575 4.64287C5.32539 4.38253 4.90329 4.38253 4.64293 4.64287C4.40261 4.8832 4.38413 5.26135 4.58747 5.52287L4.64293 5.58568L6.05712 6.99985L4.64287 8.41412C4.38253 8.67445 4.38253 9.09659 4.64287 9.35692C4.8832 9.59723 5.26135 9.61571 5.52287 9.41237L5.58568 9.35692L6.99992 7.94265L8.41419 9.35692C8.67452 9.61725 9.09665 9.61725 9.35699 9.35692C9.59729 9.11661 9.61578 8.73844 9.41244 8.47692L9.35699 8.41412L7.94272 6.99985L9.35692 5.58567C9.61725 5.32532 9.61725 4.90321 9.35692 4.64286C9.11661 4.40253 8.73844 4.38405 8.47692 4.5874L8.41412 4.64286L6.99992 6.05705L5.58575 4.64287Z" fill="#1E293B"/>
</svg>
