<svg width="32" height="32" viewBox="0 0 32 32" fill="none" xmlns="http://www.w3.org/2000/svg">
<rect width="32" height="32" rx="16" fill="#D5F0E4"/>
<path d="M20.6667 10.667C21.7713 10.667 22.6667 11.5624 22.6667 12.667V19.3337C22.6667 20.4383 21.7713 21.3337 20.6667 21.3337H11.3334C10.2288 21.3337 9.33337 20.4383 9.33337 19.3337V12.667C9.33337 11.5624 10.2288 10.667 11.3334 10.667H20.6667ZM21.3334 14.667H10.6667V19.3337C10.6667 19.6756 10.9241 19.9573 11.2556 19.9958L11.3334 20.0003H20.6667C21.0086 20.0003 21.2904 19.743 21.3289 19.4114L21.3334 19.3337V14.667ZM19.3334 16.667C19.7016 16.667 20 16.9655 20 17.3337C20 17.6756 19.7427 17.9573 19.4111 17.9958L19.3334 18.0003H17.3334C16.9652 18.0003 16.6667 17.7019 16.6667 17.3337C16.6667 16.9918 16.9241 16.71 17.2556 16.6715L17.3334 16.667H19.3334ZM20.6667 12.0003H11.3334C10.9652 12.0003 10.6667 12.2988 10.6667 12.667V13.3337H21.3334V12.667C21.3334 12.2988 21.0349 12.0003 20.6667 12.0003Z" fill="#218358"/>
</svg>
