<svg width="19" height="16" viewBox="0 0 19 16" fill="none" xmlns="http://www.w3.org/2000/svg">
<path d="M1.125 0C1.63783 0 2.06051 0.386044 2.11827 0.88338L2.125 1V14H17.125C17.6773 14 18.125 14.4477 18.125 15C18.125 15.5128 17.739 15.9355 17.2416 15.9933L17.125 16H1.125C0.612169 16 0.189493 15.614 0.131728 15.1166L0.125 15V1C0.125 0.44772 0.57272 0 1.125 0ZM17.3185 2.81813C18.2183 2.81813 18.6689 3.90606 18.0326 4.54231L12.4636 10.1114C12.034 10.541 11.3375 10.541 10.9079 10.1114L8.1502 7.3537L4.61469 10.8892C4.22416 11.2797 3.591 11.2797 3.20047 10.8892C2.80995 10.4987 2.80995 9.8655 3.20047 9.475L7.3724 5.30305C7.802 4.87347 8.4985 4.87348 8.928 5.30305L11.6858 8.0608L14.9284 4.81813H14.5142C13.9619 4.81813 13.5142 4.37041 13.5142 3.81813C13.5142 3.26584 13.9619 2.81813 14.5142 2.81813H17.3185Z" fill="#218358"/>
</svg>
