<svg width="10" height="10" viewBox="0 0 10 10" fill="none" xmlns="http://www.w3.org/2000/svg">
<path d="M5 0C5.46835 0 5.92475 0.053755 6.36315 0.155645C6.63215 0.218155 6.7995 0.48688 6.737 0.75585C6.6745 1.02482 6.4058 1.1922 6.1368 1.12969C5.89367 1.07318 5.64351 1.03438 5.38773 1.01479L5.35027 1.01343C6.15076 1.07506 6.8926 1.34613 7.52105 1.77194L7.8242 1.46879C8.01945 1.27352 8.33605 1.27352 8.5313 1.46879C8.72655 1.66405 8.72655 1.98063 8.5313 2.17589L8.2839 2.42329C9.03815 3.22799 9.5 4.31005 9.5 5.5C9.5 7.9853 7.4853 10 5 10C2.51472 10 0.5 7.9853 0.5 5.5C0.5 3.11408 2.35683 1.16185 4.70426 1.00956L4.63601 1.01318C4.37193 1.032 4.11383 1.07144 3.86317 1.12969C3.5942 1.1922 3.32548 1.02482 3.26297 0.75585C3.20046 0.48688 3.36783 0.218155 3.63681 0.155645C4.07525 0.053755 4.53165 0 5 0ZM5 2C3.06701 2 1.5 3.56701 1.5 5.5C1.5 7.433 3.06701 9 5 9C6.933 9 8.5 7.433 8.5 5.5C8.5 3.56701 6.933 2 5 2ZM5 3C5.25642 3 5.46775 3.19302 5.49664 3.44169L5.5 3.5V5.5C5.5 5.77615 5.27615 6 5 6C4.74358 6 4.53225 5.80699 4.50336 5.55831L4.5 5.5V3.5C4.5 3.22386 4.72385 3 5 3Z" fill="#F59E0B"/>
</svg>
