<svg width="14" height="14" viewBox="0 0 14 14" fill="none" xmlns="http://www.w3.org/2000/svg">
<path fill-rule="evenodd" clip-rule="evenodd" d="M4.99998 0.333008C4.2636 0.333008 3.66665 0.929961 3.66665 1.66634V2.99967H4.99998V1.66634H12.3333V8.99967H11V10.333H12.3333C13.0697 10.333 13.6666 9.73607 13.6666 8.99967V1.66634C13.6666 0.929961 13.0697 0.333008 12.3333 0.333008H4.99998ZM1.66665 3.66634C0.930266 3.66634 0.333313 4.26329 0.333313 4.99967V12.333C0.333313 13.0694 0.930266 13.6663 1.66665 13.6663H8.99998C9.73638 13.6663 10.3333 13.0694 10.3333 12.333V4.99967C10.3333 4.26329 9.73638 3.66634 8.99998 3.66634H1.66665ZM1.66665 4.99967H8.99998V12.333H1.66665V4.99967Z" fill="#218358"/>
</svg>
