<svg width="14" height="12" viewBox="0 0 14 12" fill="none" xmlns="http://www.w3.org/2000/svg">
<path d="M11.6666 0.666504C12.7712 0.666504 13.6666 1.56194 13.6666 2.6665V9.33317C13.6666 10.4378 12.7712 11.3332 11.6666 11.3332H2.33325C1.22869 11.3332 0.333252 10.4378 0.333252 9.33317V2.6665C0.333252 1.56194 1.22869 0.666504 2.33325 0.666504H11.6666ZM12.3333 4.6665H1.66659V9.33317C1.66659 9.67507 1.92395 9.95684 2.25551 9.99535L2.33325 9.99984H11.6666C12.0085 9.99984 12.2903 9.74249 12.3288 9.41092L12.3333 9.33317V4.6665ZM10.3333 6.6665C10.7015 6.6665 10.9999 6.96497 10.9999 7.33317C10.9999 7.67507 10.7426 7.95684 10.411 7.99535L10.3333 7.99984H8.33325C7.96505 7.99984 7.66659 7.70137 7.66659 7.33317C7.66659 6.99127 7.92394 6.7095 8.2555 6.67099L8.33325 6.6665H10.3333ZM11.6666 1.99984H2.33325C1.96507 1.99984 1.66659 2.29832 1.66659 2.6665V3.33317H12.3333V2.6665C12.3333 2.29832 12.0348 1.99984 11.6666 1.99984Z" fill="#94A3B8"/>
</svg>
