<svg width="15" height="12" viewBox="0 0 15 12" fill="none" xmlns="http://www.w3.org/2000/svg">
<path fill-rule="evenodd" clip-rule="evenodd" d="M14.9366 0.68112C14.8076 0.36972 14.5037 0.166687 14.1667 0.166687H5.83333C2.61168 0.166687 0 2.77836 0 6.00002C0 9.22169 2.61168 11.8334 5.83333 11.8334H13.3334C13.7936 11.8334 14.1667 11.4603 14.1667 11C14.1667 10.5398 13.7936 10.1667 13.3334 10.1667H5.83333C3.53215 10.1667 1.66667 8.30119 1.66667 6.00002C1.66667 3.69884 3.53215 1.83335 5.83333 1.83335H12.1549L10.6608 3.32743C10.3353 3.65287 10.3353 4.1805 10.6608 4.50594C10.9862 4.83135 11.5139 4.83135 11.8393 4.50594L14.7559 1.58928C14.9943 1.35095 15.0655 0.992512 14.9366 0.68112Z" fill="#1E293B"/>
</svg>
