<svg width="10" height="8" viewBox="0 0 10 8" fill="none" xmlns="http://www.w3.org/2000/svg">
<path fill-rule="evenodd" clip-rule="evenodd" d="M9.46197 0.80866C9.38457 0.62182 9.20222 0.5 9.00002 0.5H4C2.06701 0.5 0.5 2.06701 0.5 4C0.5 5.933 2.06701 7.5 4 7.5H8.50002C8.77617 7.5 9.00002 7.27615 9.00002 7C9.00002 6.72385 8.77617 6.5 8.50002 6.5H4C2.61929 6.5 1.5 5.3807 1.5 4C1.5 2.61929 2.61929 1.5 4 1.5H7.79292L6.89647 2.39644C6.70117 2.59171 6.70117 2.90829 6.89647 3.10355C7.09172 3.2988 7.40832 3.2988 7.60357 3.10355L9.35357 1.35355C9.49656 1.21055 9.53932 0.995495 9.46197 0.80866Z" fill="#218358"/>
</svg>
