<svg width="10" height="10" viewBox="0 0 10 10" fill="none" xmlns="http://www.w3.org/2000/svg">
<path d="M5 0.5C6.15685 0.5 7.2281 0.70416 8.02885 1.05449C8.42845 1.22932 8.78325 1.45042 9.04515 1.72129C9.28733 1.9718 9.46771 2.2854 9.4961 2.64947L9.5 2.75V7.75C9.5 8.15705 9.30935 8.50545 9.04515 8.7787C8.78325 9.0496 8.42845 9.2707 8.02885 9.4455C7.2281 9.79585 6.15685 10 5 10C3.84315 10 2.7719 9.79585 1.97116 9.4455C1.57153 9.2707 1.21674 9.0496 0.954865 8.7787C0.712682 8.52822 0.532288 8.21459 0.503904 7.85053L0.5 7.75V2.75C0.5 2.34294 0.690665 1.99457 0.954865 1.72129C1.21674 1.45042 1.57153 1.22932 1.97116 1.05449C2.7719 0.70416 3.84315 0.5 5 0.5ZM8.5 6.70355C8.35295 6.79235 8.19475 6.8729 8.02885 6.9455C7.2281 7.29585 6.15685 7.5 5 7.5C3.84315 7.5 2.7719 7.29585 1.97116 6.9455C1.80523 6.8729 1.64703 6.79235 1.5 6.70355V7.75C1.5 7.8262 1.53319 7.9382 1.67382 8.08365C1.81677 8.2315 2.04776 8.3875 2.37198 8.52935C3.01895 8.8124 3.94772 9 5 9C6.0523 9 6.98105 8.8124 7.628 8.52935C7.95225 8.3875 8.18325 8.2315 8.3262 8.08365C8.4668 7.9382 8.5 7.8262 8.5 7.75V6.70355ZM8.5 4.20355C8.35295 4.29235 8.19475 4.3729 8.02885 4.4455C7.2281 4.79585 6.15685 5 5 5C3.84315 5 2.7719 4.79585 1.97116 4.4455C1.80523 4.3729 1.64703 4.29235 1.5 4.20355V5.25C1.5 5.3262 1.53319 5.4382 1.67382 5.58365C1.81677 5.7315 2.04776 5.8875 2.37198 6.02935C3.01895 6.3124 3.94772 6.5 5 6.5C6.0523 6.5 6.98105 6.3124 7.628 6.02935C7.95225 5.8875 8.18325 5.7315 8.3262 5.58365C8.4668 5.4382 8.5 5.3262 8.5 5.25V4.20355ZM5 1.5C3.94772 1.5 3.01895 1.68759 2.37198 1.97064C2.04776 2.11249 1.81677 2.26849 1.67382 2.41635C1.53319 2.56181 1.5 2.67381 1.5 2.75C1.5 2.82619 1.53319 2.93819 1.67382 3.08365C1.81677 3.23151 2.04776 3.38751 2.37198 3.52936C3.01895 3.81241 3.94772 4 5 4C6.0523 4 6.98105 3.81241 7.628 3.52936C7.95225 3.38751 8.18325 3.23151 8.3262 3.08365C8.4668 2.93819 8.5 2.82619 8.5 2.75C8.5 2.67381 8.4668 2.56181 8.3262 2.41635C8.18325 2.26849 7.95225 2.11249 7.628 1.97064C6.98105 1.68759 6.0523 1.5 5 1.5Z" fill="#64748B"/>
</svg>
