<svg width="15" height="18" viewBox="0 0 15 18" fill="none" xmlns="http://www.w3.org/2000/svg">
<path fill-rule="evenodd" clip-rule="evenodd" d="M0.833252 3.16699C0.833252 1.78628 1.95254 0.666992 3.33325 0.666992H11.6666C13.0473 0.666992 14.1666 1.78628 14.1666 3.16699V16.5003C14.1666 16.8207 13.983 17.1127 13.6943 17.2514C13.4055 17.3902 13.0628 17.3512 12.8127 17.1511L11.2499 15.9008L9.68717 17.1511C9.35559 17.4163 8.87759 17.3898 8.57734 17.0896L7.49992 16.0122L6.4225 17.0896C6.12225 17.3898 5.64425 17.4163 5.31268 17.1511L3.74992 15.9008L2.18717 17.1511C1.93703 17.3512 1.59432 17.3902 1.30559 17.2514C1.01688 17.1127 0.833252 16.8207 0.833252 16.5003V3.16699ZM3.33325 2.33366C2.87302 2.33366 2.49992 2.70676 2.49992 3.16699V14.7665L3.22934 14.1829C3.53369 13.9395 3.96615 13.9395 4.27049 14.1829L5.7714 15.3837L6.91067 14.2444C7.23609 13.919 7.76375 13.919 8.08917 14.2444L9.22842 15.3837L10.7293 14.1829C11.0337 13.9395 11.4662 13.9395 11.7705 14.1829L12.4999 14.7665V3.16699C12.4999 2.70676 12.1268 2.33366 11.6666 2.33366H3.33325ZM4.16659 6.50033C4.16659 6.04009 4.53969 5.66699 4.99992 5.66699H9.99992C10.4602 5.66699 10.8333 6.04009 10.8333 6.50033C10.8333 6.96056 10.4602 7.33366 9.99992 7.33366H4.99992C4.53969 7.33366 4.16659 6.96056 4.16659 6.50033ZM4.99992 9.00033C4.53969 9.00033 4.16659 9.37341 4.16659 9.83366C4.16659 10.2939 4.53969 10.667 4.99992 10.667H7.49992C7.96017 10.667 8.33325 10.2939 8.33325 9.83366C8.33325 9.37341 7.96017 9.00033 7.49992 9.00033H4.99992Z" fill="#1E293B"/>
</svg>
