<svg width="18" height="18" viewBox="0 0 18 18" fill="none" xmlns="http://www.w3.org/2000/svg">
<path d="M10 0C10.5523 0 11 0.44772 11 1C11 1.51283 10.614 1.93551 10.1166 1.99327L10 2H2V16H16V8C16 7.4477 16.4477 7 17 7C17.5128 7 17.9355 7.38603 17.9933 7.88338L18 8V16C18 17.0544 17.1841 17.9182 16.1493 17.9945L16 18H2C0.945638 18 0.0818349 17.1841 0.00548577 16.1493L0 16V2C0 0.945638 0.815877 0.0818349 1.85074 0.00548577L2 0H10ZM16.2426 0.34334C16.6331 -0.0471901 17.2663 -0.0471901 17.6568 0.34334C18.0173 0.70382 18.045 1.27105 17.74 1.66334L17.6568 1.75755L7.7573 11.657C7.3668 12.0476 6.73363 12.0476 6.34311 11.657C5.98262 11.2965 5.95489 10.7294 6.25992 10.337L6.34311 10.2428L16.2426 0.34334Z" fill="#218358"/>
</svg>
