<svg width="12" height="14" viewBox="0 0 12 14" fill="none" xmlns="http://www.w3.org/2000/svg">
<path fill-rule="evenodd" clip-rule="evenodd" d="M6 1.66683C3.42267 1.66683 1.33333 3.75617 1.33333 6.3335V7.66683C1.33333 8.03503 1.03485 8.3335 0.666667 8.3335C0.29848 8.3335 0 8.03503 0 7.66683V6.3335C0 3.01979 2.68629 0.333496 6 0.333496C9.31373 0.333496 12 3.01979 12 6.3335V8.3335C11.9999 8.50823 11.9925 8.6831 11.9835 8.8575C11.9672 9.1729 11.9345 9.60883 11.8689 10.0902C11.743 11.0134 11.4785 12.251 10.8667 13.0668C10.6457 13.3614 10.2279 13.4211 9.93333 13.2002C9.6388 12.9792 9.57907 12.5614 9.8 12.2668C10.1881 11.7493 10.4237 10.8202 10.5478 9.9101C10.6071 9.47483 10.637 9.07743 10.6519 8.78863C10.6598 8.63703 10.6664 8.48503 10.6667 8.33323V6.3335C10.6667 3.75617 8.57733 1.66683 6 1.66683ZM6 4.3335C4.8954 4.3335 4 5.22893 4 6.3335V7.00016C4 7.62703 3.79751 8.4007 3.42157 9.10556C3.04355 9.81436 2.45557 10.5178 1.63147 10.9298C1.30216 11.0944 0.901707 10.961 0.737047 10.6316C0.572387 10.3023 0.705873 9.9019 1.03519 9.73723C1.54443 9.48256 1.95645 9.0193 2.2451 8.4781C2.53583 7.93296 2.66667 7.3733 2.66667 7.00016V6.3335C2.66667 4.49255 4.15905 3.00016 6 3.00016C7.84093 3.00016 9.33334 4.49255 9.33334 6.3335V7.00016V7.0779C9.33373 9.02783 9.33427 11.645 7.09347 13.5123C6.8106 13.748 6.3902 13.7098 6.15453 13.427C5.9188 13.1441 5.957 12.7237 6.23987 12.488C7.96913 11.047 8 9.0425 8 7.00016V6.3335C8 5.22893 7.1046 4.3335 6 4.3335ZM6.66667 6.66683C6.66667 6.29863 6.3682 6.00016 6 6.00016C5.6318 6.00016 5.33333 6.29863 5.33333 6.66683C5.33333 7.4651 5.25233 8.46836 4.95087 9.3727C4.65004 10.2752 4.1546 11.0108 3.36853 11.4039C3.03921 11.5686 2.90572 11.969 3.07038 12.2983C3.23504 12.6276 3.63549 12.7611 3.96481 12.5964C5.17873 11.9895 5.84993 10.8918 6.2158 9.7943C6.581 8.69863 6.66667 7.53523 6.66667 6.66683Z" fill="#218358"/>
</svg>
