<svg width="14" height="12" viewBox="0 0 14 12" fill="none" xmlns="http://www.w3.org/2000/svg">
<path fill-rule="evenodd" clip-rule="evenodd" d="M2.3335 5.33317C2.3335 2.75584 4.42284 0.666504 7.00016 0.666504C9.5775 0.666504 11.6668 2.75584 11.6668 5.33317V6.6901C12.7976 6.8519 13.6668 7.82437 13.6668 8.99984V9.1665C13.6668 10.3631 12.6968 11.3332 11.5002 11.3332C10.8558 11.3332 10.3335 10.8108 10.3335 10.1665V5.33317C10.3335 3.49222 8.8411 1.99984 7.00016 1.99984C5.15922 1.99984 3.66683 3.49222 3.66683 5.33317V10.1665C3.66683 10.8108 3.1445 11.3332 2.50016 11.3332C1.30354 11.3332 0.333496 10.3631 0.333496 9.1665V8.99984C0.333496 7.82437 1.20273 6.8519 2.3335 6.6901V5.33317ZM2.3335 8.05677C1.9451 8.19404 1.66683 8.56444 1.66683 8.99984V9.1665C1.66683 9.56964 1.95312 9.90597 2.3335 9.98317V8.05677ZM11.6668 8.05677V9.98317C12.0472 9.90597 12.3335 9.56964 12.3335 9.1665V8.99984C12.3335 8.56444 12.0552 8.19404 11.6668 8.05677Z" fill="#218358"/>
</svg>
