<svg width="14" height="14" viewBox="0 0 14 14" fill="none" xmlns="http://www.w3.org/2000/svg">
<path d="M7.00016 0.333496C10.682 0.333496 13.6668 3.31826 13.6668 7.00016C13.6668 10.682 10.682 13.6668 7.00016 13.6668C3.31826 13.6668 0.333496 10.682 0.333496 7.00016C0.333496 3.31826 3.31826 0.333496 7.00016 0.333496ZM7.00016 1.66683C4.05464 1.66683 1.66683 4.05464 1.66683 7.00016C1.66683 9.9457 4.05464 12.3335 7.00016 12.3335C9.9457 12.3335 12.3335 9.9457 12.3335 7.00016C12.3335 4.05464 9.9457 1.66683 7.00016 1.66683ZM7.00016 9.66683C7.36836 9.66683 7.66683 9.9653 7.66683 10.3335C7.66683 10.7017 7.36836 11.0002 7.00016 11.0002C6.63196 11.0002 6.3335 10.7017 6.3335 10.3335C6.3335 9.9653 6.63196 9.66683 7.00016 9.66683ZM7.00016 3.3335C8.33483 3.3335 9.41683 4.41548 9.41683 5.75016C9.41683 6.7683 8.7875 7.63776 7.8991 7.99396C7.80656 8.03103 7.7353 8.0827 7.69536 8.12756C7.66588 8.16068 7.66151 8.20319 7.66272 8.2469L7.66683 8.3335C7.66683 8.7017 7.36836 9.00016 7.00016 9.00016C6.65826 9.00016 6.37649 8.74281 6.33798 8.41125L6.3335 8.3335V8.16683C6.3335 7.39823 6.95303 6.9367 7.40296 6.75636C7.80296 6.59596 8.0835 6.20503 8.0835 5.75016C8.0835 5.15186 7.5985 4.66683 7.00016 4.66683C6.40183 4.66683 5.91683 5.15186 5.91683 5.75016C5.91683 6.11836 5.61835 6.41683 5.25016 6.41683C4.88198 6.41683 4.5835 6.11836 4.5835 5.75016C4.5835 4.41548 5.66548 3.3335 7.00016 3.3335Z" fill="#218358"/>
</svg>
