<svg width="21" height="18" viewBox="0 0 21 18" fill="none" xmlns="http://www.w3.org/2000/svg">
<path d="M2.375 0.5C3.1547 0.5 3.79545 1.09489 3.86813 1.85554L3.875 2V14.5H18.375C19.2034 14.5 19.875 15.1716 19.875 16C19.875 16.7797 19.2801 17.4204 18.5195 17.4931L18.375 17.5H2.375C1.5953 17.5 0.954551 16.9051 0.881866 16.1445L0.875 16V2C0.875 1.17157 1.54657 0.5 2.375 0.5ZM18.5684 3.31802C19.9137 3.31802 20.5873 4.94453 19.6361 5.89575L14.067 11.4648C13.4422 12.0897 12.4291 12.0897 11.8043 11.4648L9.4002 9.0607L6.92535 11.5356C6.33958 12.1214 5.38983 12.1214 4.80403 11.5356C4.21824 10.9498 4.21822 10.0001 4.804 9.4143L8.26875 5.94941C8.8936 5.32455 9.9067 5.32454 10.5315 5.94939L12.9357 8.3536L15.1174 6.17183C14.6127 5.93031 14.2641 5.41487 14.2641 4.81802C14.2641 3.98959 14.9357 3.31802 15.7641 3.31802H18.5684Z" fill="#218358"/>
</svg>
