<svg width="19" height="16" viewBox="0 0 19 16" fill="none" xmlns="http://www.w3.org/2000/svg">
<path d="M1.375 0C1.88783 0 2.31051 0.386044 2.36827 0.88338L2.375 1V14H17.375C17.9273 14 18.375 14.4477 18.375 15C18.375 15.5128 17.989 15.9355 17.4916 15.9933L17.375 16H1.375C0.862169 16 0.439493 15.614 0.381728 15.1166L0.375 15V1C0.375 0.44772 0.82272 0 1.375 0ZM17.5685 2.81813C18.4683 2.81813 18.9189 3.90606 18.2826 4.54231L12.7136 10.1114C12.284 10.541 11.5875 10.541 11.1579 10.1114L8.4002 7.3537L4.86469 10.8892C4.47416 11.2797 3.841 11.2797 3.45047 10.8892C3.05995 10.4987 3.05995 9.8655 3.45047 9.475L7.6224 5.30305C8.052 4.87347 8.7485 4.87348 9.178 5.30305L11.9358 8.0608L15.1784 4.81813H14.7642C14.2119 4.81813 13.7642 4.37041 13.7642 3.81813C13.7642 3.26584 14.2119 2.81813 14.7642 2.81813H17.5685Z" fill="#94A3B8"/>
</svg>
