<svg width="19" height="20" viewBox="0 0 19 20" fill="none" xmlns="http://www.w3.org/2000/svg">
<path d="M9.125 0C10.0172 0 11.1349 0.11293 12.0664 0.4276C12.53 0.58422 13.0159 0.81331 13.4019 1.16069C13.8079 1.52606 14.125 2.04809 14.125 2.71429C14.125 3.35566 13.8308 3.88646 13.4784 4.28049C13.2839 4.49793 13.0574 4.69099 12.8148 4.86101C15.8001 6.28367 18.125 9.3352 18.125 13C18.125 15.5559 17.1052 17.3861 15.3588 18.5251C13.6844 19.6171 11.4553 20 9.125 20C6.7947 20 4.56564 19.6171 2.89123 18.5251C1.14482 17.3861 0.125 15.5559 0.125 13C0.125 9.3352 2.44992 6.28367 5.43522 4.86101C5.1926 4.69099 4.96611 4.49793 4.77164 4.28049C4.41921 3.88646 4.125 3.35566 4.125 2.71429C4.125 2.04809 4.44208 1.52606 4.84807 1.16069C5.23409 0.81331 5.72002 0.58422 6.18363 0.4276C7.11508 0.11293 8.2328 0 9.125 0ZM9.125 6C5.63675 6 2.125 9.092 2.125 13C2.125 14.9441 2.85518 16.1139 3.98377 16.8499C5.18436 17.6329 6.9553 18 9.125 18C11.2947 18 13.0656 17.6329 14.2662 16.8499C15.3948 16.1139 16.125 14.9441 16.125 13C16.125 9.092 12.6133 6 9.125 6ZM11.0722 8.6056C11.5662 8.8526 11.7664 9.4532 11.5194 9.9472L10.993 11H11.125C11.6773 11 12.125 11.4477 12.125 12C12.125 12.5523 11.6773 13 11.125 13H10.125V13.5H11.125C11.6773 13.5 12.125 13.9477 12.125 14.5C12.125 15.0523 11.6773 15.5 11.125 15.5H10.125V16C10.125 16.5523 9.6773 17 9.125 17C8.5727 17 8.125 16.5523 8.125 16V15.5H7.125C6.57272 15.5 6.125 15.0523 6.125 14.5C6.125 13.9477 6.57272 13.5 7.125 13.5H8.125V13H7.125C6.57272 13 6.125 12.5523 6.125 12C6.125 11.4477 6.57272 11 7.125 11H7.257L6.73057 9.9472C6.48358 9.4532 6.68381 8.8526 7.1778 8.6056C7.6718 8.3586 8.2724 8.5588 8.5194 9.0528L9.125 10.2639L9.7306 9.0528C9.9776 8.5588 10.5782 8.3586 11.0722 8.6056ZM9.125 2C8.3603 2 7.4781 2.10135 6.82373 2.3224C6.49444 2.43364 6.29103 2.55276 6.18594 2.64734L6.13385 2.70247C6.12933 2.70852 6.12656 2.71293 6.12502 2.71559L6.13206 2.74825C6.144 2.78472 6.1761 2.85072 6.26237 2.94719C6.40259 3.10396 6.63678 3.28203 6.96363 3.45134C7.6235 3.79318 8.4667 4 9.125 4C9.7833 4 10.6265 3.79318 11.2864 3.45134C11.6132 3.28203 11.8474 3.10396 11.9876 2.94719C12.0739 2.85072 12.106 2.78472 12.1179 2.74825L12.125 2.71559L12.0969 2.67951C12.0884 2.67028 12.0776 2.65952 12.0641 2.64734C11.959 2.55276 11.7556 2.43364 11.4263 2.3224C10.7719 2.10135 9.8897 2 9.125 2Z" fill="#94A3B8"/>
</svg>
