<svg width="19" height="20" viewBox="0 0 19 20" fill="none" xmlns="http://www.w3.org/2000/svg">
<path fill-rule="evenodd" clip-rule="evenodd" d="M12.8148 4.86101C13.0574 4.69099 13.2839 4.49793 13.4784 4.28049C13.8308 3.88646 14.125 3.35566 14.125 2.71429C14.125 2.04809 13.8079 1.52606 13.4019 1.16069C13.0159 0.81331 12.53 0.58422 12.0664 0.4276C11.1349 0.11293 10.0172 0 9.125 0C8.2328 0 7.11508 0.11293 6.18363 0.4276C5.72002 0.58422 5.23409 0.81331 4.84807 1.16069C4.44208 1.52606 4.125 2.04809 4.125 2.71429C4.125 3.35566 4.41921 3.88646 4.77164 4.28049C4.96611 4.49793 5.1926 4.69099 5.43522 4.86101C2.44992 6.28367 0.125 9.3352 0.125 13C0.125 15.5559 1.14482 17.3861 2.89123 18.5251C4.56564 19.6171 6.7947 20 9.125 20C11.4553 20 13.6844 19.6171 15.3588 18.5251C17.1052 17.3861 18.125 15.5559 18.125 13C18.125 9.3352 15.8001 6.28367 12.8148 4.86101ZM6.18594 2.64734C6.14532 2.68389 6.12965 2.70761 6.12502 2.71559C6.12545 2.72633 6.13296 2.80249 6.26237 2.94719C6.40259 3.10396 6.63678 3.28203 6.96363 3.45134C7.6235 3.79318 8.4667 4 9.125 4C9.7833 4 10.6265 3.79318 11.2864 3.45134C11.6132 3.28203 11.8474 3.10396 11.9876 2.94719C12.117 2.80249 12.1245 2.72633 12.125 2.71559C12.1204 2.70761 12.1047 2.68389 12.0641 2.64734C11.959 2.55276 11.7556 2.43364 11.4263 2.3224C10.7719 2.10135 9.8897 2 9.125 2C8.3603 2 7.4781 2.10135 6.82373 2.3224C6.49444 2.43364 6.29103 2.55276 6.18594 2.64734ZM8.5194 9.0528C8.2724 8.5588 7.6718 8.3586 7.1778 8.6055C6.68381 8.8525 6.48358 9.4532 6.73057 9.9472L7.257 11H7.125C6.57272 11 6.125 11.4477 6.125 12C6.125 12.5523 6.57272 13 7.125 13H8.125V13.5H7.125C6.57272 13.5 6.125 13.9477 6.125 14.5C6.125 15.0523 6.57272 15.5 7.125 15.5H8.125V16C8.125 16.5523 8.5727 17 9.125 17C9.6773 17 10.125 16.5523 10.125 16V15.5H11.125C11.6773 15.5 12.125 15.0523 12.125 14.5C12.125 13.9477 11.6773 13.5 11.125 13.5H10.125V13H11.125C11.6773 13 12.125 12.5523 12.125 12C12.125 11.4477 11.6773 11 11.125 11H10.993L11.5194 9.9472C11.7664 9.4532 11.5662 8.8525 11.0722 8.6055C10.5782 8.3586 9.9776 8.5588 9.7306 9.0528L9.125 10.2639L8.5194 9.0528Z" fill="#218358"/>
</svg>
