<svg width="12" height="14" viewBox="0 0 12 14" fill="none" xmlns="http://www.w3.org/2000/svg">
<path d="M6 0.333252C8.15893 0.333252 9.91838 2.04363 9.99724 4.18329L10 4.33325H10.6667C11.3696 4.33325 11.9454 4.87717 11.9963 5.56708L12 5.66659V12.3333C12 13.0362 11.4561 13.612 10.7662 13.6629L10.6667 13.6666H1.33333C0.630425 13.6666 0.0545566 13.1227 0.00365718 12.4328L0 12.3333V5.66659C0 4.96368 0.543918 4.38781 1.23383 4.33691L1.33333 4.33325H2C2 2.12411 3.79086 0.333252 6 0.333252ZM10.6667 5.66659H1.33333V12.3333H10.6667V5.66659ZM6 6.99992C6.7364 6.99992 7.33333 7.59685 7.33333 8.33325C7.33333 8.78882 7.10487 9.19099 6.75626 9.43149L6.66667 9.48819V10.3333C6.66667 10.7015 6.3682 10.9999 6 10.9999C5.6581 10.9999 5.37633 10.7426 5.33782 10.411L5.33333 10.3333V9.48819C4.9348 9.25765 4.66667 8.82679 4.66667 8.33325C4.66667 7.59685 5.2636 6.99992 6 6.99992ZM6 1.66659C4.52724 1.66659 3.33333 2.86049 3.33333 4.33325H8.66667C8.66667 2.86049 7.47273 1.66659 6 1.66659Z" fill="#94A3B8"/>
</svg>
