<svg width="12" height="12" viewBox="0 0 12 12" fill="none" xmlns="http://www.w3.org/2000/svg">
<path d="M5.66667 0C6.03487 0 6.33333 0.29848 6.33333 0.666667C6.33333 1.00856 6.07598 1.29034 5.74442 1.32885L5.66667 1.33333H2V10.6667H8.66667V6.33333C8.66667 5.96513 8.96513 5.66667 9.33333 5.66667C9.67523 5.66667 9.95701 5.92402 9.99552 6.25558L10 6.33333V10.6667H11.3333C11.7015 10.6667 12 10.9651 12 11.3333C12 11.6752 11.7427 11.957 11.4111 11.9955L11.3333 12H0.666667C0.29848 12 0 11.7015 0 11.3333C0 10.9914 0.257363 10.7097 0.58892 10.6712L0.666667 10.6667V1.33333C0.666667 0.630425 1.21058 0.0545566 1.90049 0.00365718L2 0H5.66667ZM7 5.33333C7.55227 5.33333 8 5.78107 8 6.33333C8 6.8856 7.55227 7.33333 7 7.33333C6.44773 7.33333 6 6.8856 6 6.33333C6 5.78107 6.44773 5.33333 7 5.33333ZM10.3914 0.78104L11.8047 2.19433C12.0649 2.45456 12.0651 2.87643 11.805 3.13683L10.3917 4.55199C10.1315 4.81253 9.7094 4.8128 9.44887 4.55261C9.1884 4.29243 9.18813 3.87032 9.44827 3.6098L9.72553 3.33218H7.58667C7.21847 3.33218 6.92 3.03371 6.92 2.66551C6.92 2.29733 7.21847 1.99885 7.58667 1.99885H9.7236L9.4486 1.72385C9.18827 1.46349 9.18827 1.04139 9.4486 0.78104C9.70893 0.520687 10.1311 0.520687 10.3914 0.78104Z" fill="#C81E19"/>
</svg>
