<svg width="21" height="14" viewBox="0 0 21 14" fill="none" xmlns="http://www.w3.org/2000/svg">
<path d="M9.45401 12.021C9.50201 12.062 9.55401 12.103 9.60501 12.143C8.59141 12.8159 7.4016 13.1742 6.18501 13.173C5.37408 13.1737 4.57098 13.0145 3.82162 12.7045C3.07227 12.3946 2.39137 11.9399 1.81787 11.3666C1.24436 10.7933 0.789498 10.1125 0.47929 9.36328C0.169082 8.61403 0.00961594 7.81098 0.0100105 7.00005C0.009905 5.88317 0.312719 4.78717 0.886205 3.82877C1.45969 2.87037 2.28238 2.08545 3.26665 1.55761C4.25092 1.02976 5.35993 0.77875 6.47557 0.831304C7.59122 0.883859 8.67172 1.23801 9.60201 1.85605C9.55201 1.89905 9.50201 1.93805 9.46401 1.98205C8.74319 2.60446 8.16484 3.3748 7.76831 4.24068C7.37178 5.10657 7.16636 6.04769 7.16601 7.00005C7.16601 8.92505 7.99901 10.755 9.45401 12.021Z" fill="#EB001B"/>
<path d="M10 2.15005C9.26482 2.72651 8.67057 3.46284 8.26236 4.30318C7.85414 5.14353 7.64268 6.0658 7.64401 7.00005C7.64208 7.93482 7.85325 8.85774 8.2615 9.69866C8.66974 10.5396 9.26431 11.2764 10 11.853C10.7355 11.2761 11.33 10.5393 11.7384 9.69846C12.1467 8.85761 12.3583 7.93482 12.357 7.00005C12.3584 6.06569 12.1468 5.14332 11.7384 4.30294C11.33 3.46257 10.7355 2.72631 10 2.15005Z" fill="#FF5F00"/>
<path d="M13.815 0.826048C12.5995 0.823684 11.4106 1.18215 10.399 1.85605C10.4108 1.86643 10.4227 1.87658 10.4345 1.88663C10.4715 1.91818 10.5072 1.94867 10.536 1.98205C11.998 3.24505 12.835 5.07605 12.835 7.00005C12.835 8.92405 12 10.753 10.547 12.021C10.5078 12.0539 10.4666 12.0867 10.4261 12.119L10.396 12.143C11.4088 12.8161 12.598 13.1745 13.814 13.173C14.6313 13.1835 15.4426 13.0316 16.2008 12.7261C16.9589 12.4205 17.6488 11.9675 18.2305 11.3933C18.8122 10.819 19.2741 10.135 19.5894 9.38084C19.9046 8.62669 20.067 7.81745 20.0671 7.00005C20.0672 6.18266 19.9049 5.37339 19.5898 4.61919C19.2746 3.86499 18.8129 3.18088 18.2312 2.60654C17.6496 2.03219 16.9598 1.57906 16.2017 1.27342C15.4436 0.967775 14.6323 0.815711 13.815 0.826048Z" fill="#F79E1B"/>
</svg>
