<svg width="32" height="32" viewBox="0 0 32 32" fill="none" xmlns="http://www.w3.org/2000/svg">
<rect width="32" height="32" rx="16" fill="#D5F0E4"/>
<path d="M16.4472 9.47862L22.1139 12.6453C22.4527 12.8147 22.6667 13.1609 22.6667 13.5397V14.5004C22.6667 14.9606 22.2936 15.3337 21.8334 15.3337H21.3334V20.667H22C22.3682 20.667 22.6667 20.9655 22.6667 21.3337C22.6667 21.7019 22.3682 22.0003 22 22.0003H10C9.63185 22.0003 9.33337 21.7019 9.33337 21.3337C9.33337 20.9655 9.63185 20.667 10 20.667H10.6667V15.3337H10.1667C9.70647 15.3337 9.33337 14.9606 9.33337 14.5004V13.5397C9.33337 13.1925 9.5132 12.8726 9.80412 12.6912L15.5528 9.47862C15.8344 9.33786 16.1657 9.33786 16.4472 9.47862ZM20 15.3337H12V20.667H14V16.667H15.3334V20.667H16.6667V16.667H18V20.667H20V15.3337ZM16 10.7457L10.6667 13.7457V14.0004H21.3334V13.7457L16 10.7457ZM16 12.0003C16.3682 12.0003 16.6667 12.2988 16.6667 12.667C16.6667 13.0352 16.3682 13.3337 16 13.3337C15.6318 13.3337 15.3334 13.0352 15.3334 12.667C15.3334 12.2988 15.6318 12.0003 16 12.0003Z" fill="#218358"/>
</svg>
