<svg width="16" height="18" viewBox="0 0 16 18" fill="none" xmlns="http://www.w3.org/2000/svg">
<path d="M7.8335 0.666687C8.577 0.666687 9.50841 0.760795 10.2847 1.02302C10.671 1.15354 11.0759 1.34445 11.3976 1.63393C11.7359 1.9384 12.0002 2.37343 12.0002 2.9286C12.0002 3.46307 11.755 3.9054 11.4613 4.23376C11.2992 4.41496 11.1105 4.57585 10.9083 4.71753C13.3961 5.90308 15.3335 8.44602 15.3335 11.5C15.3335 13.6299 14.4837 15.1551 13.0283 16.1043C11.633 17.0143 9.77541 17.3334 7.8335 17.3334C5.89158 17.3334 4.03403 17.0143 2.63869 16.1043C1.18335 15.1551 0.333496 13.6299 0.333496 11.5C0.333496 8.44602 2.27093 5.90308 4.75868 4.71753C4.5565 4.57585 4.36775 4.41496 4.2057 4.23376C3.912 3.9054 3.66683 3.46307 3.66683 2.9286C3.66683 2.37343 3.93106 1.9384 4.26939 1.63393C4.59107 1.34445 4.99601 1.15354 5.38235 1.02302C6.15856 0.760795 7.09 0.666687 7.8335 0.666687ZM7.8335 5.66669C4.92662 5.66669 2.00016 8.24335 2.00016 11.5C2.00016 13.1201 2.60865 14.0949 3.54914 14.7083C4.54963 15.3608 6.02541 15.6667 7.8335 15.6667C9.64158 15.6667 11.1173 15.3608 12.1178 14.7083C13.0583 14.0949 13.6668 13.1201 13.6668 11.5C13.6668 8.24335 10.7404 5.66669 7.8335 5.66669ZM9.45616 7.83802C9.86783 8.04385 10.0347 8.54435 9.82883 8.95602L9.39016 9.83335H9.50016C9.96041 9.83335 10.3335 10.2064 10.3335 10.6667C10.3335 11.1269 9.96041 11.5 9.50016 11.5H8.66683V11.9167H9.50016C9.96041 11.9167 10.3335 12.2898 10.3335 12.75C10.3335 13.2103 9.96041 13.5834 9.50016 13.5834H8.66683V14C8.66683 14.4603 8.29375 14.8334 7.8335 14.8334C7.37325 14.8334 7.00016 14.4603 7.00016 14V13.5834H6.16683C5.7066 13.5834 5.3335 13.2103 5.3335 12.75C5.3335 12.2898 5.7066 11.9167 6.16683 11.9167H7.00016V11.5H6.16683C5.7066 11.5 5.3335 11.1269 5.3335 10.6667C5.3335 10.2064 5.7066 9.83335 6.16683 9.83335H6.27683L5.83814 8.95602C5.63231 8.54435 5.79917 8.04385 6.21083 7.83802C6.6225 7.63219 7.123 7.79902 7.32883 8.21069L7.8335 9.21994L8.33816 8.21069C8.544 7.79902 9.0445 7.63219 9.45616 7.83802ZM7.8335 2.33335C7.19625 2.33335 6.46108 2.41781 5.91577 2.60202C5.64136 2.69472 5.47185 2.79399 5.38428 2.8728L5.34087 2.91875C5.33711 2.92379 5.3348 2.92746 5.33351 2.92968L5.33938 2.9569C5.34933 2.98729 5.37608 3.04229 5.44797 3.12268C5.56482 3.25332 5.75998 3.40171 6.03235 3.5428C6.58225 3.82767 7.28491 4.00002 7.8335 4.00002C8.38208 4.00002 9.08475 3.82767 9.63466 3.5428C9.907 3.40171 10.1022 3.25332 10.219 3.12268C10.2909 3.04229 10.3176 2.98729 10.3276 2.9569L10.3335 2.92968L10.3101 2.89961C10.303 2.89192 10.294 2.88296 10.2827 2.8728C10.1952 2.79399 10.0257 2.69472 9.75125 2.60202C9.20591 2.41781 8.47075 2.33335 7.8335 2.33335Z" fill="#FBFEFC"/>
</svg>
