<svg width="19" height="15" viewBox="0 0 19 15" fill="none" xmlns="http://www.w3.org/2000/svg">
<path fill-rule="evenodd" clip-rule="evenodd" d="M9.16642 8C10.7272 8 12.142 8.51633 13.1786 9.23917C14.1648 9.92692 14.9998 10.9484 14.9998 12.0476C14.9998 12.6512 14.7426 13.1509 14.3368 13.5232C13.9551 13.8734 13.4567 14.1005 12.9433 14.2558C11.9173 14.5664 10.5667 14.6667 9.16642 14.6667C7.76617 14.6667 6.41561 14.5664 5.3895 14.2558C4.87616 14.1005 4.37771 13.8734 3.99597 13.5232C3.59026 13.1509 3.33309 12.6512 3.33309 12.0476C3.33309 10.9484 4.16801 9.92692 5.15421 9.23917C6.1908 8.51633 7.60567 8 9.16642 8ZM9.16642 9.66667C7.96575 9.66667 6.88062 10.0672 6.10756 10.6062C5.28412 11.1805 4.99976 11.7662 4.99976 12.0476C4.99976 12.3008 5.29313 12.4595 5.56008 12.5593L5.73062 12.6175L5.87228 12.6607C6.65581 12.8977 7.80525 13 9.16642 13C10.4229 13 11.4989 12.9129 12.2733 12.713L12.5265 12.6408L12.6852 12.5904C12.9709 12.4936 13.3331 12.3289 13.3331 12.0476C13.3331 11.7662 13.0488 11.1805 12.2253 10.6062C11.4523 10.0672 10.3671 9.66667 9.16642 9.66667ZM14.9998 8.83333C15.8702 8.83333 16.66 9.12042 17.2442 9.52783C17.778 9.90008 18.3331 10.5197 18.3331 11.2738C18.3331 12.3869 17.2524 12.7849 16.2807 12.924L16.0305 12.9547L15.7899 12.9754C15.7509 12.9782 15.7124 12.9806 15.6747 12.9827C15.7766 12.6953 15.8331 12.3826 15.8331 12.0476C15.8331 11.793 15.8014 11.546 15.7437 11.3078C16.0658 11.2832 16.3299 11.2409 16.5262 11.1815C16.6127 11.1553 16.534 11.0736 16.4432 11.0027L16.354 10.9378L16.2908 10.8949C16.0706 10.7413 15.7846 10.6124 15.4617 10.5468C15.1443 9.9135 14.658 9.36483 14.1397 8.9275C14.4136 8.86692 14.7019 8.83333 14.9998 8.83333ZM3.33309 8.83333C3.63088 8.83333 3.91926 8.86692 4.19318 8.9275C3.67485 9.36483 3.18847 9.9135 2.87115 10.5468C2.54826 10.6124 2.26222 10.7413 2.042 10.8949L1.9354 10.9684C1.82973 11.0448 1.70572 11.1509 1.80671 11.1815C2.00291 11.2409 2.26697 11.2832 2.58915 11.3078C2.53141 11.546 2.49976 11.793 2.49976 12.0476C2.49976 12.3826 2.55628 12.6953 2.65815 12.9827L2.42414 12.9662L2.17814 12.9407C1.17644 12.8181 -0.000244141 12.4353 -0.000244141 11.2738C-0.000244141 10.5197 0.554856 9.90008 1.08865 9.52783C1.67282 9.12042 2.46268 8.83333 3.33309 8.83333ZM14.5831 3.83333C15.7337 3.83333 16.6664 4.76607 16.6664 5.91667C16.6664 7.06725 15.7337 8 14.5831 8C13.4325 8 12.4998 7.06725 12.4998 5.91667C12.4998 4.76607 13.4325 3.83333 14.5831 3.83333ZM3.74976 3.83333C4.90035 3.83333 5.83309 4.76607 5.83309 5.91667C5.83309 7.06725 4.90035 8 3.74976 8C2.59916 8 1.66642 7.06725 1.66642 5.91667C1.66642 4.76607 2.59916 3.83333 3.74976 3.83333ZM9.16642 0.5C11.0073 0.5 12.4998 1.99238 12.4998 3.83333C12.4998 5.67428 11.0073 7.16667 9.16642 7.16667C7.32547 7.16667 5.83309 5.67428 5.83309 3.83333C5.83309 1.99238 7.32547 0.5 9.16642 0.5ZM14.5831 5.5C14.353 5.5 14.1664 5.68655 14.1664 5.91667C14.1664 6.14678 14.353 6.33333 14.5831 6.33333C14.8132 6.33333 14.9998 6.14678 14.9998 5.91667C14.9998 5.68655 14.8132 5.5 14.5831 5.5ZM3.74976 5.5C3.51964 5.5 3.33309 5.68655 3.33309 5.91667C3.33309 6.14678 3.51964 6.33333 3.74976 6.33333C3.97987 6.33333 4.16642 6.14678 4.16642 5.91667C4.16642 5.68655 3.97987 5.5 3.74976 5.5ZM9.16642 2.16667C8.24592 2.16667 7.49975 2.91286 7.49975 3.83333C7.49975 4.75381 8.24592 5.5 9.16642 5.5C10.0869 5.5 10.8331 4.75381 10.8331 3.83333C10.8331 2.91286 10.0869 2.16667 9.16642 2.16667Z" fill="#1E293B"/>
</svg>
