<svg width="18" height="18" viewBox="0 0 18 18" fill="none" xmlns="http://www.w3.org/2000/svg">
<path fill-rule="evenodd" clip-rule="evenodd" d="M5.36435 1.82949C3.21685 1.82949 1.82935 3.30199 1.82935 5.57366V12.4187C1.82935 13.0562 1.94768 13.6253 2.15018 14.1178C2.15893 14.1074 2.34973 13.8749 2.59861 13.5716C3.08483 12.9791 3.79272 12.1164 3.79768 12.112C4.37435 11.4537 5.45685 10.472 6.87768 11.0662C7.18903 11.1953 7.46577 11.3721 7.72053 11.5349C7.74534 11.5507 7.76994 11.5665 7.79435 11.582C8.27185 11.9012 8.55268 12.0512 8.84435 12.0262C8.96518 12.0095 9.07852 11.9737 9.18602 11.907C9.59154 11.657 10.6429 10.1673 10.9577 9.72122C11.0039 9.6558 11.0342 9.61282 11.0443 9.59949C11.9527 8.41616 13.3527 8.09949 14.5193 8.79949C14.676 8.89283 15.7985 9.67699 16.1702 9.99199V5.57366C16.1702 3.30199 14.7827 1.82949 12.6277 1.82949H5.36435ZM12.6277 0.666992C15.4418 0.666992 17.3327 2.63533 17.3327 5.57366V12.4187C17.3327 12.4926 17.3249 12.5619 17.3172 12.6311C17.3117 12.6798 17.3063 12.7284 17.3035 12.7787C17.3017 12.809 17.3009 12.8394 17.3 12.8697C17.2988 12.9102 17.2977 12.9507 17.2943 12.9912C17.2927 13.007 17.2896 13.0222 17.2864 13.0374C17.2833 13.0526 17.2802 13.0678 17.2785 13.0837C17.251 13.3453 17.2085 13.5953 17.1494 13.8378C17.1354 13.8984 17.1192 13.9569 17.1029 14.0159L17.0993 14.0287C17.0327 14.2637 16.9543 14.4878 16.8602 14.702C16.8437 14.738 16.8263 14.7731 16.8089 14.8082C16.7973 14.8316 16.7857 14.855 16.7743 14.8787C16.6727 15.0828 16.5627 15.2787 16.4352 15.4603C16.4116 15.494 16.3865 15.5255 16.3613 15.557C16.3447 15.5779 16.3281 15.5988 16.3118 15.6203C16.1793 15.792 16.041 15.9562 15.8843 16.1053C15.8531 16.1351 15.8193 16.1623 15.7854 16.1895C15.7643 16.2065 15.7432 16.2235 15.7227 16.2412C15.5619 16.3795 15.3977 16.512 15.2169 16.6253C15.1774 16.6501 15.1355 16.6709 15.0937 16.6916C15.0667 16.705 15.0397 16.7184 15.0135 16.7328C14.8293 16.8345 14.6435 16.9337 14.441 17.0103C14.3923 17.0288 14.3404 17.0422 14.2884 17.0556C14.2515 17.0652 14.2145 17.0747 14.1785 17.0862C14.1605 17.0917 14.1425 17.0973 14.1245 17.1029C13.9436 17.1592 13.7633 17.2153 13.5685 17.2487C13.4557 17.2684 13.3359 17.276 13.2161 17.2836C13.1642 17.2869 13.1123 17.2902 13.061 17.2945C13.0058 17.2986 12.9517 17.3053 12.8975 17.3119C12.8094 17.3228 12.7211 17.3337 12.6277 17.3337H5.36435C5.05102 17.3337 4.75185 17.302 4.46268 17.2545L4.43185 17.2495C3.30435 17.0553 2.36852 16.5112 1.71268 15.6903C1.70813 15.6903 1.70634 15.6873 1.70396 15.6832C1.70242 15.6805 1.70063 15.6774 1.69768 15.6745C1.03852 14.8445 0.666016 13.7287 0.666016 12.4187V5.57366C0.666016 2.63533 2.55852 0.666992 5.36435 0.666992H12.6277ZM8.16652 6.09579C8.16652 7.22492 7.22175 8.16666 6.08722 8.16666C5.08996 8.16666 4.23967 7.43804 4.04911 6.49468C4.01761 6.35314 3.99985 6.20758 3.99985 6.05719C3.99985 4.92002 4.92362 3.99999 6.06542 3.99999C6.64681 3.99999 7.1733 4.24448 7.5504 4.63452C7.92911 5.0109 8.16652 5.52962 8.16652 6.09579Z" fill="#01AA1B"/>
</svg>
