<svg width="10" height="10" viewBox="0 0 10 10" fill="none" xmlns="http://www.w3.org/2000/svg">
<path fill-rule="evenodd" clip-rule="evenodd" d="M4.5 1C4.30302 1 4.10796 1.0388 3.92597 1.11418C3.74399 1.18956 3.57863 1.30005 3.43934 1.43934C3.30005 1.57863 3.18956 1.74399 3.11418 1.92597C3.0388 2.10796 3 2.30302 3 2.5C3 2.69698 3.0388 2.89204 3.11418 3.07403C3.18956 3.25601 3.30005 3.42137 3.43934 3.56066C3.57863 3.69995 3.74399 3.81044 3.92597 3.88582C4.10796 3.9612 4.30302 4 4.5 4C4.89782 4 5.27936 3.84196 5.56066 3.56066C5.84196 3.27936 6 2.89782 6 2.5C6 2.10218 5.84196 1.72064 5.56066 1.43934C5.27936 1.15804 4.89782 1 4.5 1ZM2 2.5C2 1.83696 2.26339 1.20107 2.73223 0.732233C3.20107 0.263392 3.83696 0 4.5 0C5.16304 0 5.79893 0.263392 6.26777 0.732233C6.73661 1.20107 7 1.83696 7 2.5C7 3.16304 6.73661 3.79893 6.26777 4.26777C5.79893 4.73661 5.16304 5 4.5 5C3.83696 5 3.20107 4.73661 2.73223 4.26777C2.26339 3.79893 2 3.16304 2 2.5ZM1.2065 7.8005C1.045 8.0055 1 8.1605 1 8.25C1 8.311 1.0185 8.3755 1.1275 8.463C1.252 8.563 1.4685 8.6665 1.7995 8.754C2.4585 8.929 3.4055 9 4.5 9C4.611 9 4.7205 8.999 4.829 8.9975C4.96161 8.99571 5.0895 9.04667 5.18453 9.13917C5.27956 9.23168 5.33396 9.35814 5.33575 9.49075C5.33754 9.62336 5.28658 9.75125 5.19408 9.84628C5.10157 9.94131 4.97511 9.99571 4.8425 9.9975C4.7295 9.999 4.615 10 4.5 10C3.3855 10 2.3325 9.93 1.5435 9.721C1.151 9.617 0.7815 9.468 0.5015 9.243C0.205 9.005 0 8.6725 0 8.25C0 7.8565 0.179 7.4885 0.422 7.1805C0.669 6.868 1.0105 6.5805 1.411 6.3355C2.2125 5.8475 3.3025 5.5 4.5 5.5C4.7235 5.5 4.9435 5.512 5.158 5.535C5.28988 5.54899 5.4108 5.6148 5.49416 5.71794C5.57752 5.82109 5.61649 5.95312 5.6025 6.085C5.58851 6.21688 5.5227 6.3378 5.41956 6.42116C5.31641 6.50452 5.18438 6.54349 5.0525 6.5295C4.8725 6.51 4.6875 6.5 4.5 6.5C3.4885 6.5 2.5785 6.795 1.932 7.1895C1.6085 7.3865 1.364 7.6005 1.2065 7.8005ZM9.854 7.034C9.94508 6.9397 9.99548 6.8134 9.99434 6.6823C9.9932 6.5512 9.94061 6.42579 9.84791 6.33309C9.75521 6.24039 9.6298 6.1878 9.4987 6.18666C9.3676 6.18552 9.2413 6.23592 9.147 6.327L7.556 7.918L6.849 7.211C6.7547 7.11992 6.6284 7.06952 6.4973 7.07066C6.3662 7.0718 6.2408 7.12439 6.14809 7.21709C6.05539 7.30979 6.0028 7.4352 6.00166 7.5663C6.00052 7.6974 6.05092 7.8237 6.142 7.918L7.167 8.943C7.21808 8.9941 7.27872 9.03463 7.34546 9.06229C7.41221 9.08995 7.48375 9.10418 7.556 9.10418C7.62825 9.10418 7.69979 9.08995 7.76654 9.06229C7.83328 9.03463 7.89392 8.9941 7.945 8.943L9.854 7.034Z" fill="#218358"/>
</svg>
