<svg width="33" height="32" viewBox="0 0 33 32" fill="none" xmlns="http://www.w3.org/2000/svg">
<rect x="0.5" width="32" height="32" rx="16" fill="#D5F0E4"/>
<path fill-rule="evenodd" clip-rule="evenodd" d="M19.1667 17.3335C20.0256 17.3335 20.8514 17.6652 21.4719 18.2593C22.0923 18.8533 22.4594 19.664 22.4967 20.5222L22.5 20.6668V21.3335C22.5001 21.6699 22.3731 21.9939 22.1443 22.2405C21.9156 22.4872 21.6021 22.6383 21.2667 22.6635L21.1667 22.6668H11.8333C11.4969 22.6669 11.173 22.5399 10.9263 22.3112C10.6796 22.0824 10.5286 21.7689 10.5033 21.4335L10.5 21.3335V20.6668C10.5 19.8079 10.8317 18.9821 11.4258 18.3616C12.0199 17.7412 12.8305 17.3741 13.6887 17.3368L13.8333 17.3335H19.1667ZM19.1667 18.6668H13.8333C13.3232 18.6668 12.8323 18.8617 12.4612 19.2117C12.09 19.5617 11.8666 20.0402 11.8367 20.5495L11.8333 20.6668V21.3335H21.1667V20.6668C21.1667 20.1567 20.9718 19.6658 20.6218 19.2947C20.2718 18.9235 19.7933 18.7001 19.284 18.6702L19.1667 18.6668ZM16.5 9.3335C17.3841 9.3335 18.2319 9.68469 18.857 10.3098C19.4821 10.9349 19.8333 11.7828 19.8333 12.6668C19.8333 13.5509 19.4821 14.3987 18.857 15.0239C18.2319 15.649 17.3841 16.0002 16.5 16.0002C15.6159 16.0002 14.7681 15.649 14.143 15.0239C13.5179 14.3987 13.1667 13.5509 13.1667 12.6668C13.1667 11.7828 13.5179 10.9349 14.143 10.3098C14.7681 9.68469 15.6159 9.3335 16.5 9.3335ZM16.5 10.6668C16.2374 10.6668 15.9773 10.7186 15.7346 10.8191C15.492 10.9196 15.2715 11.0669 15.0858 11.2526C14.9001 11.4383 14.7528 11.6588 14.6522 11.9015C14.5517 12.1441 14.5 12.4042 14.5 12.6668C14.5 12.9295 14.5517 13.1895 14.6522 13.4322C14.7528 13.6748 14.9001 13.8953 15.0858 14.081C15.2715 14.2668 15.492 14.4141 15.7346 14.5146C15.9773 14.6151 16.2374 14.6668 16.5 14.6668C17.0304 14.6668 17.5391 14.4561 17.9142 14.081C18.2893 13.706 18.5 13.1973 18.5 12.6668C18.5 12.1364 18.2893 11.6277 17.9142 11.2526C17.5391 10.8775 17.0304 10.6668 16.5 10.6668Z" fill="#218358"/>
</svg>
