<svg width="10" height="10" viewBox="0 0 10 10" fill="none" xmlns="http://www.w3.org/2000/svg">
<path fill-rule="evenodd" clip-rule="evenodd" d="M4.5 1C4.30302 1 4.10796 1.0388 3.92597 1.11418C3.74399 1.18956 3.57863 1.30005 3.43934 1.43934C3.30005 1.57863 3.18956 1.74399 3.11418 1.92597C3.0388 2.10796 3 2.30302 3 2.5C3 2.69698 3.0388 2.89204 3.11418 3.07403C3.18956 3.25601 3.30005 3.42137 3.43934 3.56066C3.57863 3.69995 3.74399 3.81044 3.92597 3.88582C4.10796 3.9612 4.30302 4 4.5 4C4.89782 4 5.27936 3.84196 5.56066 3.56066C5.84196 3.27936 6 2.89782 6 2.5C6 2.10218 5.84196 1.72064 5.56066 1.43934C5.27936 1.15804 4.89782 1 4.5 1ZM2 2.5C2 1.83696 2.26339 1.20107 2.73223 0.732233C3.20107 0.263392 3.83696 0 4.5 0C5.16304 0 5.79893 0.263392 6.26777 0.732233C6.73661 1.20107 7 1.83696 7 2.5C7 3.16304 6.73661 3.79893 6.26777 4.26777C5.79893 4.73661 5.16304 5 4.5 5C3.83696 5 3.20107 4.73661 2.73223 4.26777C2.26339 3.79893 2 3.16304 2 2.5ZM1.2065 7.8005C1.045 8.0055 1 8.1605 1 8.25C1 8.311 1.0185 8.3755 1.1275 8.463C1.252 8.563 1.4685 8.6665 1.7995 8.754C2.4585 8.929 3.4055 9 4.5 9C4.611 9 4.7205 8.999 4.829 8.9975C4.96161 8.99571 5.0895 9.04667 5.18453 9.13917C5.27956 9.23168 5.33396 9.35814 5.33575 9.49075C5.33754 9.62336 5.28658 9.75125 5.19408 9.84628C5.10157 9.94131 4.97511 9.99571 4.8425 9.9975C4.7295 9.999 4.615 10 4.5 10C3.3855 10 2.3325 9.93 1.5435 9.721C1.151 9.617 0.7815 9.468 0.5015 9.243C0.205 9.005 0 8.6725 0 8.25C0 7.8565 0.179 7.4885 0.422 7.1805C0.669 6.868 1.0105 6.5805 1.411 6.3355C2.2125 5.8475 3.3025 5.5 4.5 5.5C4.7235 5.5 4.9435 5.512 5.158 5.535C5.28988 5.54899 5.4108 5.6148 5.49416 5.71794C5.57752 5.82109 5.61649 5.95312 5.6025 6.085C5.58851 6.21688 5.5227 6.3378 5.41956 6.42116C5.31641 6.50452 5.18438 6.54349 5.0525 6.5295C4.8725 6.51 4.6875 6.5 4.5 6.5C3.4885 6.5 2.5785 6.795 1.932 7.1895C1.6085 7.3865 1.364 7.6005 1.2065 7.8005ZM7.293 6.5855C7.19918 6.49175 7.07196 6.4391 6.93932 6.43915C6.80669 6.4392 6.6795 6.49193 6.58575 6.58575C6.492 6.67957 6.43935 6.80679 6.4394 6.93943C6.43945 7.07206 6.49218 7.19925 6.586 7.293L7.293 8L6.586 8.707C6.53824 8.75312 6.50015 8.8083 6.47395 8.8693C6.44774 8.9303 6.43395 8.99591 6.43337 9.0623C6.4328 9.12869 6.44545 9.19453 6.47059 9.25598C6.49573 9.31742 6.53286 9.37325 6.5798 9.4202C6.62675 9.46714 6.68257 9.50427 6.74402 9.52941C6.80547 9.55455 6.87131 9.5672 6.9377 9.56663C7.00409 9.56605 7.0697 9.55225 7.1307 9.52605C7.1917 9.49985 7.24688 9.46175 7.293 9.414L8 8.707L8.707 9.414C8.75312 9.46175 8.8083 9.49985 8.8693 9.52605C8.9303 9.55225 8.99591 9.56605 9.0623 9.56663C9.12869 9.5672 9.19453 9.55455 9.25598 9.52941C9.31742 9.50427 9.37325 9.46714 9.4202 9.4202C9.46714 9.37325 9.50427 9.31742 9.52941 9.25598C9.55455 9.19453 9.5672 9.12869 9.56663 9.0623C9.56605 8.99591 9.55225 8.9303 9.52605 8.8693C9.49985 8.8083 9.46175 8.75312 9.414 8.707L8.707 8L9.414 7.293C9.50508 7.1987 9.55548 7.0724 9.55434 6.9413C9.5532 6.8102 9.50061 6.68479 9.40791 6.59209C9.31521 6.49939 9.1898 6.4468 9.0587 6.44566C8.9276 6.44452 8.8013 6.49492 8.707 6.586L8 7.293L7.293 6.586V6.5855Z" fill="#B91C1C"/>
</svg>
