<svg width="42" height="72" viewBox="0 0 42 72" fill="none" xmlns="http://www.w3.org/2000/svg">
<path d="M-0.00195312 24.5957H41.0919V51.4208C41.0919 62.7686 31.8927 71.9677 20.545 71.9677C9.19721 71.9677 -0.00195312 62.7686 -0.00195312 51.4208V24.5957Z" fill="#1E2022"/>
<path d="M17.1408 58.2663C17.0103 58.3767 16.9149 58.4972 16.8546 58.6278C16.8044 58.7483 16.7793 58.9089 16.7793 59.1098C16.7793 59.2805 16.7843 59.4161 16.7944 59.5165C16.8546 60.0688 16.8948 60.4253 16.9149 60.5859C16.945 60.9274 16.9902 61.3943 17.0504 61.9868C17.1207 62.5792 17.2011 63.3776 17.2914 64.3817C17.3216 64.6227 17.3366 64.8587 17.3366 65.0897C17.3366 65.5014 17.2914 65.878 17.2011 66.2194C17.0605 66.8018 16.8295 67.2738 16.5082 67.6353C15.9659 68.2479 15.1676 68.5541 14.1132 68.5541C13.35 68.5541 12.7023 68.4186 12.1701 68.1474C11.658 67.8763 11.2965 67.4847 11.0856 66.9725C10.945 66.6311 10.8747 66.2746 10.8747 65.9031C10.8747 65.3508 11.0304 64.6981 11.3417 63.9449L11.6278 64.0353C11.5475 64.4169 11.5073 64.7382 11.5073 64.9993C11.5073 65.3307 11.5676 65.6119 11.6881 65.8428C11.8789 66.2144 12.2404 66.4855 12.7726 66.6562C13.1944 66.7868 13.6613 66.852 14.1735 66.852C15.0371 66.852 15.6898 66.6914 16.1316 66.37C16.4931 66.1089 16.6739 65.7123 16.6739 65.1801C16.6739 64.7583 16.5935 64.0353 16.4329 63.011C16.232 61.7357 16.0362 60.6964 15.8454 59.893C15.6546 59.0897 15.494 58.5173 15.3634 58.1759L16.2521 57.0311C16.5232 57.5232 16.8195 57.9349 17.1408 58.2663ZM26.6544 65.5566H26.1724C25.7707 65.5566 25.4443 65.5115 25.1933 65.4211C24.9422 65.3307 24.7364 65.1951 24.5757 65.0144C24.2945 64.693 24.1389 64.196 24.1088 63.5232C24.0585 63.7642 23.8929 64.0956 23.6117 64.5173C23.3305 64.9391 22.8033 65.3458 22.0301 65.7374C21.7791 65.8679 21.5481 65.9583 21.3372 66.0085C21.1364 66.0688 20.8452 66.134 20.4636 66.2043C19.9514 66.2947 19.5749 66.3751 19.3339 66.4453L19.3037 66.2495C20.3481 65.7374 21.1213 65.2755 21.6234 64.8638C22.1255 64.442 22.482 64.0956 22.6929 63.8244C22.723 63.4629 22.6075 63.0361 22.3464 62.5441C22.0853 62.042 21.7489 61.5349 21.3372 61.0227C20.8652 60.4504 20.333 59.9282 19.7406 59.4562L19.5749 59.7575C19.2435 59.5466 18.897 59.3006 18.5355 59.0194L18.5958 58.432L18.656 58.0102C18.6661 57.9399 18.6912 57.8847 18.7314 57.8445C18.7715 57.7943 18.8167 57.7692 18.8669 57.7692C18.9874 57.7692 19.2134 57.8847 19.5447 58.1156C19.8862 58.3466 20.2426 58.6278 20.6142 58.9591C21.3673 59.6119 21.995 60.3299 22.497 61.1131C22.9188 61.7759 23.205 62.3734 23.3556 62.9056C23.436 62.8052 23.5113 62.6194 23.5816 62.3483C23.6519 62.0771 23.687 61.6956 23.687 61.2035C23.687 60.7315 23.6519 60.1441 23.5816 59.4412L23.3707 57.9499C23.5916 57.6286 23.8929 57.3173 24.2744 57.0161L24.41 58.2964C24.4201 58.437 24.4351 58.6027 24.4552 58.7935C24.4753 58.9843 24.4954 59.2002 24.5155 59.4412L24.7414 61.7909C24.7816 62.2629 24.8318 62.6395 24.892 62.9207C24.9523 63.1918 25.0276 63.4127 25.118 63.5834C25.2184 63.7642 25.3439 63.8947 25.4945 63.9751C25.6552 64.0453 25.8661 64.0805 26.1272 64.0805H26.6544V65.5566ZM34.1344 62.1073C33.9537 62.529 33.7328 62.9809 33.4717 63.4629C32.8792 63.473 32.3621 63.5633 31.9202 63.734C31.4884 63.9048 30.9964 64.1558 30.4441 64.4872C29.8516 64.8386 29.3194 65.1048 28.8474 65.2855C28.3754 65.4663 27.8031 65.5566 27.1303 65.5566H26.3319C26.111 65.5566 25.9353 65.4863 25.8047 65.3458C25.6641 65.1951 25.5939 65.0194 25.5939 64.8186C25.5939 64.6177 25.6641 64.447 25.8047 64.3064C25.9453 64.1558 26.121 64.0805 26.3319 64.0805H27.0549C27.6575 64.0805 28.2248 64.0353 28.757 63.9449C29.2993 63.8545 29.7462 63.7491 30.0976 63.6286C30.4089 63.5181 30.6951 63.3926 30.9562 63.252C31.2273 63.1014 31.3629 63.0211 31.3629 63.011L30.8959 62.8453C30.3738 62.6545 29.9068 62.4989 29.4951 62.3784C29.0934 62.2579 28.7319 62.1976 28.4106 62.1976C28.1897 62.1976 28.0139 62.2278 27.8834 62.288C27.7629 62.3382 27.6675 62.4085 27.5972 62.4989C27.537 62.5792 27.4365 62.7299 27.2959 62.9508L27.0549 62.7851C27.2156 62.2529 27.4365 61.8311 27.7177 61.5198C28.019 61.1884 28.3754 61.0227 28.7872 61.0227C28.9679 61.0227 29.1487 61.0529 29.3294 61.1131C29.5202 61.1633 29.7612 61.2487 30.0524 61.3692C30.6349 61.6002 31.1872 61.7809 31.7093 61.9115C32.2315 62.042 32.8742 62.1073 33.6374 62.1073H34.1344Z" fill="#C5A968"/>
<g clip-path="url(#clip0_9917_12897)">
<path d="M25.9163 37.5977H21.9089C21.5357 37.5977 21.1765 37.7376 20.9012 37.9895L16.3153 42.1882C16.3107 42.1929 16.306 42.2022 16.3013 42.2069C15.5269 42.9346 15.5409 44.0963 16.2034 44.8194C16.7959 45.4678 18.0415 45.6404 18.8205 44.9453C18.8252 44.9407 18.8345 44.9407 18.8392 44.936L22.5667 41.5211C22.8699 41.2458 23.3458 41.2645 23.621 41.5677C23.9009 41.871 23.8776 42.3422 23.5744 42.6221L22.3568 43.737L29.1493 49.2513C29.2846 49.3633 29.4059 49.4846 29.5178 49.6105V40.5834L26.9706 38.0362C26.6954 37.7563 26.3128 37.5977 25.9163 37.5977ZM31.0154 40.5927V51.0381C31.0154 51.8638 31.6825 52.5309 32.5082 52.5309H35.4939V40.5927H31.0154ZM33.2546 51.0381C32.8441 51.0381 32.5082 50.7022 32.5082 50.2916C32.5082 49.8811 32.8441 49.5452 33.2546 49.5452C33.6652 49.5452 34.0011 49.8811 34.0011 50.2916C34.0011 50.7022 33.6652 51.0381 33.2546 51.0381ZM5.63672 52.5263H8.62244C9.44818 52.5263 10.1153 51.8591 10.1153 51.0334V40.5927H5.63672V52.5263ZM7.87601 49.5452C8.28655 49.5452 8.62244 49.8811 8.62244 50.2916C8.62244 50.7022 8.28655 51.0381 7.87601 51.0381C7.46547 51.0381 7.12958 50.7022 7.12958 50.2916C7.12958 49.8764 7.46547 49.5452 7.87601 49.5452ZM28.2116 50.4129L21.2464 44.7587L19.8469 46.0417C18.4613 47.3059 16.3387 47.1846 15.1024 45.8364C13.8475 44.4648 13.9454 42.3422 15.3077 41.0919L19.1238 37.5977H15.2144C14.8178 37.5977 14.4399 37.7563 14.16 38.0362L11.6082 40.5834V51.0287H12.4619L16.6839 54.8495C17.9622 55.8899 19.8422 55.6939 20.8826 54.4157L20.8919 54.4063L21.727 55.1294C22.4687 55.7359 23.565 55.6193 24.1669 54.8775L25.6317 53.0768L25.8836 53.282C26.5228 53.7999 27.4651 53.7066 27.983 53.0628L28.4262 52.5169C28.9487 51.8731 28.8507 50.9354 28.2116 50.4129Z" fill="#F5F5ED"/>
</g>
<rect x="35.3359" y="40.623" width="4.79157" height="11.1803" fill="#F5F5ED"/>
<rect x="0.998047" y="40.624" width="4.79157" height="11.1803" fill="#F5F5ED"/>
<path d="M8.27344 35.62V27.7663H13.5731V29.0753H9.79181V30.3318H12.2003V31.6408H9.79181V35.62H8.27344Z" fill="#C4E8D1"/>
<path d="M13.5133 35.62V27.7663H15.0317V30.2795H17.3005V27.7663H18.8189V35.62H17.3005V31.6931H15.0317V35.62H13.5133Z" fill="#C4E8D1"/>
<path d="M24.2829 35.777C23.7069 35.777 23.1688 35.6723 22.6685 35.4629C22.1682 35.2476 21.7261 34.9539 21.3421 34.5815C20.964 34.2092 20.6673 33.7758 20.452 33.2813C20.2368 32.7868 20.1292 32.2574 20.1292 31.6931C20.1292 31.1288 20.2368 30.5994 20.452 30.105C20.6673 29.6105 20.964 29.1771 21.3421 28.8047C21.7261 28.4324 22.1682 28.1416 22.6685 27.9321C23.1688 27.7169 23.7069 27.6092 24.2829 27.6092C24.8006 27.6092 25.2893 27.6936 25.7489 27.8623C26.2085 28.031 26.6186 28.2695 26.9793 28.5779L26.5342 30.4104C26.319 30.0497 26.0223 29.7472 25.6442 29.5028C25.266 29.2527 24.8297 29.1276 24.3352 29.1276C23.864 29.1276 23.4364 29.244 23.0525 29.4767C22.6743 29.7036 22.3747 30.0119 22.1537 30.4017C21.9326 30.7856 21.8221 31.2161 21.8221 31.6931C21.8221 32.1644 21.9326 32.5949 22.1537 32.9846C22.3747 33.3744 22.6743 33.6856 23.0525 33.9183C23.4364 34.1452 23.864 34.2587 24.3352 34.2587C24.8239 34.2587 25.2573 34.1365 25.6354 33.8922C26.0194 33.642 26.319 33.3366 26.5342 32.9759L26.9793 34.8084C26.6128 35.1109 26.1997 35.3494 25.7401 35.524C25.2864 35.6927 24.8006 35.777 24.2829 35.777Z" fill="#C4E8D1"/>
<path d="M30.1074 35.7945C29.6303 35.7945 29.1766 35.7072 28.7461 35.5327C28.3214 35.3524 27.9811 35.1371 27.7251 34.887L28.1527 33.1417C28.3563 33.4966 28.6443 33.7933 29.0166 34.0318C29.3889 34.2645 29.77 34.3808 30.1597 34.3808C30.4797 34.3808 30.7298 34.2936 30.9102 34.119C31.0963 33.9445 31.1894 33.7322 31.1894 33.482C31.1894 33.2784 31.14 33.1097 31.0411 32.9759C30.948 32.8421 30.8346 32.7316 30.7008 32.6443C30.5728 32.557 30.4593 32.4901 30.3604 32.4436L29.4354 31.9811C29.1678 31.8473 28.9119 31.6902 28.6675 31.5099C28.4232 31.3237 28.2225 31.0939 28.0654 30.8205C27.9142 30.5471 27.8385 30.2097 27.8385 29.8083C27.8385 29.3661 27.9374 28.9793 28.1352 28.6477C28.3388 28.3161 28.6239 28.0572 28.9904 27.871C29.3569 27.6849 29.7874 27.5918 30.2819 27.5918C30.7473 27.5918 31.1603 27.6674 31.521 27.8187C31.8875 27.9641 32.1842 28.1212 32.4111 28.2899L32.0097 29.9915C31.777 29.689 31.4978 29.4476 31.172 29.2672C30.852 29.0811 30.532 28.988 30.2121 28.988C29.927 28.988 29.706 29.0607 29.5489 29.2062C29.3976 29.3516 29.322 29.5319 29.322 29.7472C29.322 29.881 29.3511 30.0002 29.4093 30.105C29.4733 30.2097 29.5634 30.3028 29.6798 30.3842C29.7961 30.4656 29.9328 30.5471 30.0899 30.6285L31.0236 31.091C31.1807 31.1667 31.3523 31.2656 31.5385 31.3877C31.7246 31.5041 31.905 31.6524 32.0795 31.8328C32.254 32.0131 32.3966 32.2313 32.5071 32.4872C32.6176 32.7374 32.6729 33.037 32.6729 33.386C32.6729 33.8398 32.5682 34.2499 32.3587 34.6164C32.1493 34.9771 31.8526 35.2651 31.4687 35.4803C31.0905 35.6898 30.6368 35.7945 30.1074 35.7945Z" fill="#C4E8D1"/>
<rect x="-0.00195312" y="20.4863" width="41.1498" height="3.56276" fill="#218358"/>
<path d="M17.5965 0L19.5722 6.08043H25.9655L20.7932 9.83834L22.7689 15.9188L17.5965 12.1609L12.4242 15.9188L14.3999 9.83834L9.22756 6.08043H15.6209L17.5965 0Z" fill="#C5A968"/>
<mask id="path-9-inside-1_9917_12897" fill="white">
<path d="M27.3193 5.66113C29.624 7.62109 31.0879 10.5403 31.0879 13.8027C31.0878 19.704 26.3036 24.4882 20.4023 24.4883C15.5481 24.4883 11.4519 21.2505 10.1504 16.8174C12.0147 18.4032 14.429 19.3623 17.0684 19.3623C22.9696 19.3623 27.7538 14.578 27.7539 8.67676C27.7539 7.62931 27.6003 6.61767 27.3193 5.66113Z"/>
</mask>
<path d="M27.3193 5.66113C29.624 7.62109 31.0879 10.5403 31.0879 13.8027C31.0878 19.704 26.3036 24.4882 20.4023 24.4883C15.5481 24.4883 11.4519 21.2505 10.1504 16.8174C12.0147 18.4032 14.429 19.3623 17.0684 19.3623C22.9696 19.3623 27.7538 14.578 27.7539 8.67676C27.7539 7.62931 27.6003 6.61767 27.3193 5.66113Z" fill="#231F1F"/>
<path d="M27.3193 5.66113L27.781 5.11833L25.9633 3.57252L26.6357 5.86192L27.3193 5.66113ZM31.0879 13.8027L31.8004 13.8027V13.8027H31.0879ZM20.4023 24.4883V25.2008H20.4023L20.4023 24.4883ZM10.1504 16.8174L10.6121 16.2746L8.79451 14.7286L9.4667 17.0181L10.1504 16.8174ZM17.0684 19.3623V20.0749H17.0684L17.0684 19.3623ZM27.7539 8.67676L28.4665 8.67677V8.67676H27.7539ZM27.3193 5.66113L26.8577 6.20394C29.0103 8.03457 30.3753 10.7585 30.3753 13.8027H31.0879H31.8004C31.8004 10.3222 30.2377 7.20762 27.781 5.11833L27.3193 5.66113ZM31.0879 13.8027L30.3753 13.8027C30.3753 19.3105 25.9101 23.7757 20.4023 23.7757L20.4023 24.4883L20.4023 25.2008C26.6972 25.2008 31.8004 20.0975 31.8004 13.8027L31.0879 13.8027ZM20.4023 24.4883V23.7757C15.8731 23.7757 12.049 20.7548 10.8341 16.6167L10.1504 16.8174L9.4667 17.0181C10.8548 21.7461 15.2231 25.2008 20.4023 25.2008V24.4883ZM10.1504 16.8174L9.68871 17.3601C11.6766 19.0511 14.2531 20.0749 17.0684 20.0749V19.3623V18.6498C14.605 18.6498 12.3528 17.7553 10.6121 16.2746L10.1504 16.8174ZM17.0684 19.3623L17.0684 20.0749C23.3632 20.0748 28.4664 14.9715 28.4665 8.67677L27.7539 8.67676L27.0414 8.67675C27.0413 14.1845 22.5761 18.6497 17.0684 18.6498L17.0684 19.3623ZM27.7539 8.67676H28.4665C28.4665 7.55925 28.3025 6.48005 28.003 5.46035L27.3193 5.66113L26.6357 5.86192C26.898 6.7553 27.0414 7.69938 27.0414 8.67676H27.7539Z" fill="white" mask="url(#path-9-inside-1_9917_12897)"/>
<defs>
<clipPath id="clip0_9917_12897">
<rect width="29.8572" height="23.8858" fill="white" transform="translate(5.63672 34.6123)"/>
</clipPath>
</defs>
</svg>
