<svg width="32" height="32" viewBox="0 0 32 32" fill="none" xmlns="http://www.w3.org/2000/svg">
<rect width="32" height="32" rx="16" fill="#D5F0E4"/>
<path d="M15.6666 10C17.0444 10 18.2053 10.9289 18.5573 12.1946L18.5919 12.3315L19.8383 12.0199C20.0374 11.9701 20.2484 12.0149 20.4102 12.1412C20.5489 12.2495 20.6382 12.4074 20.6609 12.5795L20.6666 12.6667V13.8731C21.0397 14.2311 21.3491 14.6556 21.5757 15.128L21.6677 15.3333H21.9999C22.3418 15.3333 22.6236 15.5907 22.6621 15.9223L22.6666 16V18C22.6666 18.2245 22.5539 18.4318 22.3702 18.5544L22.2981 18.5963L21.519 18.9858C21.1995 19.6045 20.7357 20.1359 20.172 20.536L19.9999 20.652V21.3333C19.9999 21.6752 19.7426 21.957 19.411 21.9955L19.3333 22H17.3333C16.9914 22 16.7096 21.7427 16.6711 21.4111L16.6666 21.3333H15.9999C15.9999 21.6752 15.7426 21.957 15.411 21.9955L15.3333 22H13.3333C12.9914 22 12.7096 21.7427 12.6711 21.4111L12.6666 21.3333V20.652C11.7114 20.0405 11.0111 19.0637 10.764 17.9178C9.97434 17.6838 9.38858 16.9753 9.33696 16.1227L9.33325 16V15.6667C9.33325 15.2985 9.63173 15 9.99992 15C10.3418 15 10.6236 15.2574 10.6621 15.5889L10.6666 15.6667V16C10.6666 16.0988 10.6881 16.1926 10.7266 16.2769C10.9344 15.0403 11.6659 13.9813 12.6852 13.336C12.6729 13.2256 12.6666 13.1135 12.6666 13C12.6666 11.3431 14.0097 10 15.6666 10ZM19.3333 13.5205L17.4949 13.9801L17.4147 13.995L17.3333 14H14.9999C13.3431 14 11.9999 15.3431 11.9999 17C11.9999 18.1649 12.6637 19.1759 13.6367 19.6733C13.8349 19.7745 13.9677 19.9669 13.9948 20.1843L13.9999 20.2669V20.6667H14.6666C14.6666 20.3248 14.9239 20.043 15.2555 20.0045L15.3333 20H17.3333C17.6752 20 17.9569 20.2574 17.9954 20.5889L17.9999 20.6667H18.6666V20.2669C18.6666 20.0165 18.8069 19.7872 19.0298 19.6733C19.6394 19.3616 20.1288 18.8471 20.4084 18.2199C20.4586 18.1071 20.539 18.011 20.6398 17.9418L20.7191 17.8951L21.3333 17.588V16.6667H21.1953C20.8969 16.6667 20.6349 16.4685 20.5537 16.1815C20.3861 15.5886 20.0398 15.069 19.5754 14.6855C19.444 14.5769 19.3599 14.4229 19.3386 14.2559L19.3333 14.1714V13.5205ZM18.6666 15.3333C19.0348 15.3333 19.3333 15.6318 19.3333 16C19.3333 16.3682 19.0348 16.6667 18.6666 16.6667C18.2984 16.6667 17.9999 16.3682 17.9999 16C17.9999 15.6318 18.2984 15.3333 18.6666 15.3333ZM15.6666 11.3333C14.821 11.3333 14.1224 11.9631 14.0144 12.7792C14.331 12.7056 14.6609 12.6667 14.9999 12.6667H17.2512L17.2975 12.6551C17.1387 11.9001 16.4688 11.3333 15.6666 11.3333Z" fill="#218358"/>
</svg>
