<svg width="16" height="16" viewBox="0 0 16 16" fill="none" xmlns="http://www.w3.org/2000/svg">
<path fill-rule="evenodd" clip-rule="evenodd" d="M6.99992 1.33325C3.87031 1.33325 1.33325 3.87031 1.33325 6.99992C1.33325 10.1295 3.87031 12.6666 6.99992 12.6666C8.32452 12.6666 9.54299 12.2121 10.5079 11.4506L12.9427 13.8855C13.2031 14.1458 13.6252 14.1458 13.8855 13.8855C14.1459 13.6251 14.1459 13.203 13.8855 12.9427L11.4507 10.5078C12.2121 9.54292 12.6666 8.32445 12.6666 6.99992C12.6666 3.87031 10.1295 1.33325 6.99992 1.33325ZM2.66659 6.99992C2.66659 4.60669 4.60669 2.66659 6.99992 2.66659C9.39319 2.66659 11.3333 4.60669 11.3333 6.99992C11.3333 9.39319 9.39319 11.3333 6.99992 11.3333C4.60669 11.3333 2.66659 9.39319 2.66659 6.99992Z" fill="#94A3B8"/>
</svg>
