<svg width="56" height="56" viewBox="0 0 56 56" fill="none" xmlns="http://www.w3.org/2000/svg">
<rect width="56" height="56" rx="28" fill="#FEE2E2"/>
<path fill-rule="evenodd" clip-rule="evenodd" d="M26.667 17.3337C26.1417 17.3337 25.6216 17.4371 25.1363 17.6381C24.651 17.8392 24.21 18.1338 23.8386 18.5052C23.4671 18.8767 23.1725 19.3176 22.9715 19.8029C22.7705 20.2882 22.667 20.8084 22.667 21.3337C22.667 21.8589 22.7705 22.3791 22.9715 22.8644C23.1725 23.3497 23.4671 23.7907 23.8386 24.1621C24.21 24.5335 24.651 24.8282 25.1363 25.0292C25.6216 25.2302 26.1417 25.3337 26.667 25.3337C27.7279 25.3337 28.7453 24.9122 29.4954 24.1621C30.2456 23.4119 30.667 22.3945 30.667 21.3337C30.667 20.2728 30.2456 19.2554 29.4954 18.5052C28.7453 17.7551 27.7279 17.3337 26.667 17.3337ZM20.0003 21.3337C20.0003 19.5655 20.7027 17.8699 21.9529 16.6196C23.2032 15.3694 24.8989 14.667 26.667 14.667C28.4351 14.667 30.1308 15.3694 31.381 16.6196C32.6313 17.8699 33.3337 19.5655 33.3337 21.3337C33.3337 23.1018 32.6313 24.7975 31.381 26.0477C30.1308 27.2979 28.4351 28.0003 26.667 28.0003C24.8989 28.0003 23.2032 27.2979 21.9529 26.0477C20.7027 24.7975 20.0003 23.1018 20.0003 21.3337ZM17.8843 35.4683C17.4537 36.015 17.3337 36.4283 17.3337 36.667C17.3337 36.8297 17.383 37.0017 17.6737 37.235C18.0057 37.5017 18.583 37.7777 19.4657 38.011C21.223 38.4777 23.7483 38.667 26.667 38.667C26.963 38.667 27.255 38.6643 27.5443 38.6603C27.8979 38.6556 28.239 38.7914 28.4924 39.0381C28.7458 39.2848 28.8909 39.622 28.8957 39.9757C28.9004 40.3293 28.7645 40.6703 28.5179 40.9237C28.2712 41.1772 27.9339 41.3222 27.5803 41.327C27.279 41.331 26.9737 41.3337 26.667 41.3337C23.695 41.3337 20.887 41.147 18.783 40.5897C17.7363 40.3123 16.751 39.915 16.0043 39.315C15.2137 38.6803 14.667 37.7937 14.667 36.667C14.667 35.6177 15.1443 34.6363 15.7923 33.815C16.451 32.9817 17.3617 32.215 18.4297 31.5617C20.567 30.2603 23.4737 29.3337 26.667 29.3337C27.263 29.3337 27.8497 29.3657 28.4217 29.427C28.7733 29.4643 29.0958 29.6398 29.3181 29.9148C29.5404 30.1899 29.6443 30.542 29.607 30.8937C29.5697 31.2453 29.3942 31.5678 29.1192 31.7901C28.8441 32.0124 28.492 32.1163 28.1403 32.079C27.6603 32.027 27.167 32.0003 26.667 32.0003C23.9697 32.0003 21.543 32.787 19.819 33.839C18.9563 34.3643 18.3043 34.935 17.8843 35.4683ZM34.115 32.2283C33.8648 31.9783 33.5255 31.8379 33.1719 31.8381C32.8182 31.8382 32.479 31.9788 32.229 32.229C31.979 32.4792 31.8386 32.8184 31.8387 33.1721C31.8388 33.5258 31.9795 33.865 32.2297 34.115L34.115 36.0003L32.2297 37.8857C32.1023 38.0087 32.0007 38.1558 31.9309 38.3185C31.861 38.4811 31.8242 38.6561 31.8227 38.8331C31.8211 39.0102 31.8549 39.1857 31.9219 39.3496C31.9889 39.5135 32.0879 39.6623 32.2131 39.7875C32.3383 39.9127 32.4872 40.0117 32.6511 40.0788C32.8149 40.1458 32.9905 40.1795 33.1675 40.178C33.3446 40.1765 33.5195 40.1397 33.6822 40.0698C33.8449 39.9999 33.992 39.8983 34.115 39.771L36.0003 37.8857L37.8857 39.771C38.0087 39.8983 38.1558 39.9999 38.3185 40.0698C38.4811 40.1397 38.6561 40.1765 38.8331 40.178C39.0102 40.1795 39.1857 40.1458 39.3496 40.0788C39.5135 40.0117 39.6623 39.9127 39.7875 39.7875C39.9127 39.6623 40.0117 39.5135 40.0788 39.3496C40.1458 39.1857 40.1795 39.0102 40.178 38.8331C40.1765 38.6561 40.1397 38.4811 40.0698 38.3185C39.9999 38.1558 39.8983 38.0087 39.771 37.8857L37.8857 36.0003L39.771 34.115C40.0139 33.8635 40.1483 33.5267 40.1452 33.1771C40.1422 32.8275 40.002 32.4931 39.7548 32.2459C39.5075 31.9987 39.1731 31.8585 38.8235 31.8554C38.4739 31.8524 38.1371 31.9868 37.8857 32.2297L36.0003 34.115L34.115 32.2297V32.2283Z" fill="#B91C1C"/>
</svg>
