<svg width="56" height="56" viewBox="0 0 56 56" fill="none" xmlns="http://www.w3.org/2000/svg">
<rect width="56" height="56" rx="28" fill="#D5F0E4"/>
<path fill-rule="evenodd" clip-rule="evenodd" d="M26.667 17.3337C26.1417 17.3337 25.6216 17.4371 25.1363 17.6381C24.651 17.8392 24.21 18.1338 23.8386 18.5052C23.4671 18.8767 23.1725 19.3176 22.9715 19.8029C22.7705 20.2882 22.667 20.8084 22.667 21.3337C22.667 21.8589 22.7705 22.3791 22.9715 22.8644C23.1725 23.3497 23.4671 23.7907 23.8386 24.1621C24.21 24.5335 24.651 24.8282 25.1363 25.0292C25.6216 25.2302 26.1417 25.3337 26.667 25.3337C27.7279 25.3337 28.7453 24.9122 29.4954 24.1621C30.2456 23.4119 30.667 22.3945 30.667 21.3337C30.667 20.2728 30.2456 19.2554 29.4954 18.5052C28.7453 17.7551 27.7279 17.3337 26.667 17.3337ZM20.0003 21.3337C20.0003 19.5655 20.7027 17.8699 21.9529 16.6196C23.2032 15.3694 24.8989 14.667 26.667 14.667C28.4351 14.667 30.1308 15.3694 31.381 16.6196C32.6313 17.8699 33.3337 19.5655 33.3337 21.3337C33.3337 23.1018 32.6313 24.7975 31.381 26.0477C30.1308 27.2979 28.4351 28.0003 26.667 28.0003C24.8989 28.0003 23.2032 27.2979 21.9529 26.0477C20.7027 24.7975 20.0003 23.1018 20.0003 21.3337ZM17.8843 35.4683C17.4537 36.015 17.3337 36.4283 17.3337 36.667C17.3337 36.8297 17.383 37.0017 17.6737 37.235C18.0057 37.5017 18.583 37.7777 19.4657 38.011C21.223 38.4777 23.7483 38.667 26.667 38.667C26.963 38.667 27.255 38.6643 27.5443 38.6603C27.8979 38.6556 28.239 38.7914 28.4924 39.0381C28.7458 39.2848 28.8909 39.622 28.8957 39.9757C28.9004 40.3293 28.7645 40.6703 28.5179 40.9237C28.2712 41.1772 27.9339 41.3222 27.5803 41.327C27.279 41.331 26.9737 41.3337 26.667 41.3337C23.695 41.3337 20.887 41.147 18.783 40.5897C17.7363 40.3123 16.751 39.915 16.0043 39.315C15.2137 38.6803 14.667 37.7937 14.667 36.667C14.667 35.6177 15.1443 34.6363 15.7923 33.815C16.451 32.9817 17.3617 32.215 18.4297 31.5617C20.567 30.2603 23.4737 29.3337 26.667 29.3337C27.263 29.3337 27.8497 29.3657 28.4217 29.427C28.7733 29.4643 29.0958 29.6398 29.3181 29.9148C29.5404 30.1899 29.6443 30.542 29.607 30.8937C29.5697 31.2453 29.3942 31.5678 29.1192 31.7901C28.8441 32.0124 28.492 32.1163 28.1403 32.079C27.6603 32.027 27.167 32.0003 26.667 32.0003C23.9697 32.0003 21.543 32.787 19.819 33.839C18.9563 34.3643 18.3043 34.935 17.8843 35.4683ZM40.9443 33.4243C41.1872 33.1729 41.3216 32.8361 41.3186 32.4865C41.3155 32.1369 41.1753 31.8024 40.9281 31.5552C40.6809 31.308 40.3465 31.1678 39.9969 31.1648C39.6473 31.1617 39.3105 31.2961 39.059 31.539L34.8163 35.7817L32.931 33.8963C32.6795 33.6535 32.3427 33.5191 31.9931 33.5221C31.6435 33.5251 31.3091 33.6654 31.0619 33.9126C30.8147 34.1598 30.6745 34.4942 30.6714 34.8438C30.6684 35.1934 30.8028 35.5302 31.0457 35.7817L33.779 38.515C33.9152 38.6513 34.0769 38.7594 34.2549 38.8331C34.4329 38.9069 34.6237 38.9448 34.8163 38.9448C35.009 38.9448 35.1998 38.9069 35.3778 38.8331C35.5557 38.7594 35.7175 38.6513 35.8537 38.515L40.9443 33.4243Z" fill="#218358"/>
</svg>
