<svg width="12" height="14" viewBox="0 0 12 14" fill="none" xmlns="http://www.w3.org/2000/svg">
<path d="M6 0.333496C8.15893 0.333496 9.91838 2.04388 9.99724 4.18354L10 4.3335H10.6667C11.3696 4.3335 11.9454 4.87741 11.9963 5.56732L12 5.66683V12.3335C12 13.0364 11.4561 13.6123 10.7662 13.6632L10.6667 13.6668H1.33333C0.630425 13.6668 0.0545566 13.1229 0.00365718 12.433L0 12.3335V5.66683C0 4.96392 0.543918 4.38805 1.23383 4.33715L1.33333 4.3335H2C2 2.12436 3.79086 0.333496 6 0.333496ZM10.6667 5.66683H1.33333V12.3335H10.6667V5.66683ZM6 7.00016C6.7364 7.00016 7.33333 7.5971 7.33333 8.3335C7.33333 8.78907 7.10487 9.19124 6.75626 9.43174L6.66667 9.48843V10.3335C6.66667 10.7017 6.3682 11.0002 6 11.0002C5.6581 11.0002 5.37633 10.7428 5.33782 10.4112L5.33333 10.3335V9.48843C4.9348 9.2579 4.66667 8.82703 4.66667 8.3335C4.66667 7.5971 5.2636 7.00016 6 7.00016ZM6 1.66683C4.52724 1.66683 3.33333 2.86074 3.33333 4.3335H8.66667C8.66667 2.86074 7.47273 1.66683 6 1.66683Z" fill="#218358"/>
</svg>
