<svg width="12" height="14" viewBox="0 0 12 14" fill="none" xmlns="http://www.w3.org/2000/svg">
<path d="M7.05704 0.333496C7.41064 0.333496 7.74977 0.473969 7.99984 0.724023L10.9426 3.66683C11.1927 3.91688 11.3332 4.25602 11.3332 4.60964V12.3335C11.3332 13.0699 10.7362 13.6668 9.99984 13.6668H1.99984C1.26346 13.6668 0.666504 13.0699 0.666504 12.3335V1.66683C0.666504 0.930449 1.26346 0.333496 1.99984 0.333496H7.05704ZM5.99984 1.66683H1.99984V12.3335H9.99984V5.66683H6.99984C6.44757 5.66683 5.99984 5.21912 5.99984 4.66683V1.66683ZM7.99984 8.3335C8.36804 8.3335 8.6665 8.63196 8.6665 9.00016C8.6665 9.36836 8.36804 9.66683 7.99984 9.66683H3.99984C3.63165 9.66683 3.33317 9.36836 3.33317 9.00016C3.33317 8.63196 3.63165 8.3335 3.99984 8.3335H7.99984ZM4.6665 5.66683C5.0347 5.66683 5.33317 5.9653 5.33317 6.3335C5.33317 6.7017 5.0347 7.00016 4.6665 7.00016H3.99984C3.63165 7.00016 3.33317 6.7017 3.33317 6.3335C3.33317 5.9653 3.63165 5.66683 3.99984 5.66683H4.6665ZM7.33317 1.94297V4.3335H9.7237L7.33317 1.94297Z" fill="#218358"/>
</svg>
