<svg width="12" height="14" viewBox="0 0 12 14" fill="none" xmlns="http://www.w3.org/2000/svg">
<path fill-rule="evenodd" clip-rule="evenodd" d="M6 7.66683C7.59733 7.66683 9.05 8.1295 10.1187 8.7815C10.652 9.10683 11.108 9.49083 11.4373 9.90816C11.7613 10.3182 12 10.8088 12 11.3335C12 11.8968 11.726 12.3408 11.3313 12.6575C10.958 12.9575 10.4653 13.1562 9.942 13.2948C8.89 13.5728 7.486 13.6668 6 13.6668C4.514 13.6668 3.11 13.5735 2.058 13.2948C1.53467 13.1562 1.042 12.9575 0.668667 12.6575C0.273333 12.3402 0 11.8968 0 11.3335C0 10.8088 0.238667 10.3182 0.562667 9.9075C0.892 9.49083 1.34733 9.1075 1.88133 8.78083C2.95 8.13016 4.40333 7.66683 6 7.66683ZM6 9.00016C4.65133 9.00016 3.438 9.3935 2.576 9.9195C2.14467 10.1822 1.81933 10.4675 1.60933 10.7342C1.39333 11.0075 1.33333 11.2142 1.33333 11.3335C1.33333 11.4148 1.358 11.5008 1.50333 11.6175C1.66933 11.7508 1.958 11.8888 2.39933 12.0055C3.278 12.2388 4.54067 12.3335 6 12.3335C7.46 12.3335 8.722 12.2382 9.6 12.0055C10.042 11.8888 10.3307 11.7508 10.4967 11.6175C10.642 11.5008 10.6667 11.4148 10.6667 11.3335C10.6667 11.2135 10.6067 11.0075 10.3913 10.7342C10.1807 10.4675 9.85533 10.1822 9.424 9.9195C8.562 9.39283 7.34867 9.00016 6 9.00016ZM6 0.333496C6.88406 0.333496 7.7319 0.684686 8.35702 1.30981C8.98214 1.93493 9.33333 2.78277 9.33333 3.66683C9.33333 4.55088 8.98214 5.39873 8.35702 6.02385C7.7319 6.64897 6.88406 7.00016 6 7.00016C5.11595 7.00016 4.2681 6.64897 3.64298 6.02385C3.01786 5.39873 2.66667 4.55088 2.66667 3.66683C2.66667 2.78277 3.01786 1.93493 3.64298 1.30981C4.2681 0.684686 5.11595 0.333496 6 0.333496ZM6 1.66683C5.73736 1.66683 5.47728 1.71856 5.23463 1.81907C4.99198 1.91958 4.7715 2.0669 4.58579 2.25262C4.40007 2.43833 4.25275 2.65881 4.15224 2.90146C4.05173 3.14411 4 3.40419 4 3.66683C4 3.92947 4.05173 4.18955 4.15224 4.4322C4.25275 4.67485 4.40007 4.89533 4.58579 5.08104C4.7715 5.26676 4.99198 5.41408 5.23463 5.51459C5.47728 5.6151 5.73736 5.66683 6 5.66683C6.53043 5.66683 7.03914 5.45612 7.41421 5.08104C7.78929 4.70597 8 4.19726 8 3.66683C8 3.1364 7.78929 2.62769 7.41421 2.25262C7.03914 1.87754 6.53043 1.66683 6 1.66683Z" fill="#218358"/>
</svg>
