<svg width="14" height="14" viewBox="0 0 14 14" fill="none" xmlns="http://www.w3.org/2000/svg">
<path fill-rule="evenodd" clip-rule="evenodd" d="M11.5895 8.64616C11.6747 8.49925 11.8128 8.39041 11.9756 8.34187C12.1384 8.29333 12.3136 8.30875 12.4653 8.38498C12.6171 8.46122 12.7341 8.59251 12.7924 8.75207C12.8506 8.91162 12.8458 9.08739 12.7788 9.2435L12.7442 9.31283L12.5208 9.6995C12.6539 9.85585 12.7623 10.0317 12.8422 10.2208L12.8862 10.3335H13.3335C13.5034 10.3337 13.6669 10.3987 13.7904 10.5154C13.914 10.632 13.9883 10.7915 13.9983 10.9611C14.0082 11.1307 13.953 11.2977 13.844 11.4281C13.7349 11.5584 13.5802 11.6421 13.4115 11.6622L13.3335 11.6668H12.8862C12.8209 11.8517 12.7288 12.026 12.6128 12.1842L12.5208 12.3002L12.7442 12.6875C12.8299 12.8348 12.8559 13.0094 12.8169 13.1753C12.7779 13.3412 12.6769 13.4859 12.5345 13.5796C12.3921 13.6733 12.2193 13.709 12.0515 13.6792C11.8836 13.6494 11.7336 13.5565 11.6322 13.4195L11.5895 13.3542L11.3662 12.9675C11.1708 13.0035 10.9728 13.0095 10.7795 12.9875L10.6348 12.9662L10.4108 13.3542C10.3256 13.5011 10.1875 13.6099 10.0247 13.6585C9.86193 13.707 9.68677 13.6916 9.53498 13.6153C9.3832 13.5391 9.26623 13.4078 9.20797 13.2483C9.14971 13.0887 9.15455 12.9129 9.2215 12.7568L9.25616 12.6875L9.4795 12.3002C9.34659 12.1442 9.23824 11.9688 9.15816 11.7802L9.11416 11.6668H8.66683C8.49691 11.6666 8.33347 11.6016 8.20992 11.4849C8.08636 11.3683 8.01201 11.2089 8.00205 11.0392C7.99209 10.8696 8.04728 10.7026 8.15634 10.5723C8.2654 10.442 8.4201 10.3582 8.58883 10.3382L8.66683 10.3335H9.11483C9.18009 10.1486 9.27218 9.97428 9.38816 9.81616L9.4795 9.70016L9.25616 9.31283C9.17044 9.16551 9.1444 8.99095 9.1834 8.82503C9.22239 8.6591 9.32346 8.51442 9.46583 8.4207C9.60819 8.32698 9.78105 8.29135 9.94887 8.32114C10.1167 8.35092 10.2667 8.44385 10.3682 8.58083L10.4108 8.64616L10.6342 9.03283C10.8295 8.99683 11.0275 8.99083 11.2208 9.01283L11.3655 9.0335L11.5895 8.64616ZM6.3335 7.66683C6.6315 7.66683 6.92483 7.68283 7.21083 7.7135C7.38667 7.73215 7.54789 7.81989 7.65904 7.95742C7.77019 8.09494 7.82215 8.27099 7.8035 8.44683C7.78484 8.62267 7.6971 8.78389 7.55958 8.89504C7.42205 9.00619 7.246 9.05815 7.07016 9.0395C6.83016 9.0135 6.5835 9.00016 6.3335 9.00016C4.98483 9.00016 3.7715 9.3935 2.9095 9.9195C2.47816 10.1822 2.15283 10.4675 1.94283 10.7342C1.72683 11.0075 1.66683 11.2142 1.66683 11.3335C1.66683 11.4148 1.6915 11.5008 1.83683 11.6175C2.00283 11.7508 2.2915 11.8888 2.73283 12.0055C3.6115 12.2388 4.87416 12.3335 6.3335 12.3335L6.77216 12.3302C6.94897 12.3278 7.11949 12.3957 7.2462 12.5191C7.37292 12.6424 7.44544 12.811 7.44783 12.9878C7.45022 13.1646 7.38227 13.3352 7.25893 13.4619C7.1356 13.5886 6.96697 13.6611 6.79016 13.6635L6.3335 13.6668C4.8475 13.6668 3.4435 13.5735 2.3915 13.2948C1.86816 13.1562 1.3755 12.9575 1.00216 12.6575C0.606829 12.3402 0.333496 11.8968 0.333496 11.3335C0.333496 10.8088 0.572163 10.3182 0.896163 9.9075C1.2255 9.49083 1.68083 9.1075 2.21483 8.78083C3.2835 8.13016 4.73683 7.66683 6.3335 7.66683ZM11.0002 10.3335C10.8234 10.3335 10.6538 10.4037 10.5288 10.5288C10.4037 10.6538 10.3335 10.8234 10.3335 11.0002C10.3335 11.177 10.4037 11.3465 10.5288 11.4716C10.6538 11.5966 10.8234 11.6668 11.0002 11.6668C11.177 11.6668 11.3465 11.5966 11.4716 11.4716C11.5966 11.3465 11.6668 11.177 11.6668 11.0002C11.6668 10.8234 11.5966 10.6538 11.4716 10.5288C11.3465 10.4037 11.177 10.3335 11.0002 10.3335ZM6.3335 0.333496C7.21755 0.333496 8.0654 0.684686 8.69052 1.30981C9.31564 1.93493 9.66683 2.78277 9.66683 3.66683C9.66683 4.55088 9.31564 5.39873 8.69052 6.02385C8.0654 6.64897 7.21755 7.00016 6.3335 7.00016C5.44944 7.00016 4.60159 6.64897 3.97647 6.02385C3.35135 5.39873 3.00016 4.55088 3.00016 3.66683C3.00016 2.78277 3.35135 1.93493 3.97647 1.30981C4.60159 0.684686 5.44944 0.333496 6.3335 0.333496ZM6.3335 1.66683C6.07085 1.66683 5.81078 1.71856 5.56813 1.81907C5.32548 1.91958 5.105 2.0669 4.91928 2.25262C4.73357 2.43833 4.58625 2.65881 4.48574 2.90146C4.38523 3.14411 4.3335 3.40419 4.3335 3.66683C4.3335 3.92947 4.38523 4.18955 4.48574 4.4322C4.58625 4.67485 4.73357 4.89533 4.91928 5.08104C5.105 5.26676 5.32548 5.41408 5.56813 5.51459C5.81078 5.6151 6.07085 5.66683 6.3335 5.66683C6.86393 5.66683 7.37264 5.45612 7.74771 5.08104C8.12278 4.70597 8.3335 4.19726 8.3335 3.66683C8.3335 3.1364 8.12278 2.62769 7.74771 2.25262C7.37264 1.87754 6.86393 1.66683 6.3335 1.66683Z" fill="#218358"/>
</svg>
