<svg width="19" height="20" viewBox="0 0 19 20" fill="none" xmlns="http://www.w3.org/2000/svg">
<path d="M9.375 0C10.2672 0 11.3849 0.11293 12.3164 0.4276C12.78 0.58422 13.2659 0.81331 13.6519 1.16069C14.0579 1.52606 14.375 2.04809 14.375 2.71429C14.375 3.35566 14.0808 3.88646 13.7284 4.28049C13.5339 4.49793 13.3074 4.69099 13.0648 4.86101C16.0501 6.28367 18.375 9.3352 18.375 13C18.375 15.5559 17.3552 17.3861 15.6088 18.5251C13.9344 19.6171 11.7053 20 9.375 20C7.0447 20 4.81564 19.6171 3.14123 18.5251C1.39482 17.3861 0.375 15.5559 0.375 13C0.375 9.3352 2.69992 6.28367 5.68522 4.86101C5.4426 4.69099 5.21611 4.49793 5.02164 4.28049C4.66921 3.88646 4.375 3.35566 4.375 2.71429C4.375 2.04809 4.69208 1.52606 5.09807 1.16069C5.48409 0.81331 5.97002 0.58422 6.43363 0.4276C7.36508 0.11293 8.4828 0 9.375 0ZM9.375 6C5.88675 6 2.375 9.092 2.375 13C2.375 14.9441 3.10518 16.1139 4.23377 16.8499C5.43436 17.6329 7.2053 18 9.375 18C11.5447 18 13.3156 17.6329 14.5162 16.8499C15.6448 16.1139 16.375 14.9441 16.375 13C16.375 9.092 12.8633 6 9.375 6ZM11.3222 8.6056C11.8162 8.8526 12.0164 9.4532 11.7694 9.9472L11.243 11H11.375C11.9273 11 12.375 11.4477 12.375 12C12.375 12.5523 11.9273 13 11.375 13H10.375V13.5H11.375C11.9273 13.5 12.375 13.9477 12.375 14.5C12.375 15.0523 11.9273 15.5 11.375 15.5H10.375V16C10.375 16.5523 9.9273 17 9.375 17C8.8227 17 8.375 16.5523 8.375 16V15.5H7.375C6.82272 15.5 6.375 15.0523 6.375 14.5C6.375 13.9477 6.82272 13.5 7.375 13.5H8.375V13H7.375C6.82272 13 6.375 12.5523 6.375 12C6.375 11.4477 6.82272 11 7.375 11H7.507L6.98057 9.9472C6.73358 9.4532 6.93381 8.8526 7.4278 8.6056C7.9218 8.3586 8.5224 8.5588 8.7694 9.0528L9.375 10.2639L9.9806 9.0528C10.2276 8.5588 10.8282 8.3586 11.3222 8.6056ZM9.375 2C8.6103 2 7.7281 2.10135 7.07373 2.3224C6.74444 2.43364 6.54103 2.55276 6.43594 2.64734L6.38385 2.70247C6.37933 2.70852 6.37656 2.71293 6.37502 2.71559L6.38206 2.74825C6.394 2.78472 6.4261 2.85072 6.51237 2.94719C6.65259 3.10396 6.88678 3.28203 7.21363 3.45134C7.8735 3.79318 8.7167 4 9.375 4C10.0333 4 10.8765 3.79318 11.5364 3.45134C11.8632 3.28203 12.0974 3.10396 12.2376 2.94719C12.3239 2.85072 12.356 2.78472 12.3679 2.74825L12.375 2.71559L12.3469 2.67951C12.3384 2.67028 12.3276 2.65952 12.3141 2.64734C12.209 2.55276 12.0056 2.43364 11.6763 2.3224C11.0219 2.10135 10.1397 2 9.375 2Z" fill="#218358"/>
</svg>
